<svg xmlns="http://www.w3.org/2000/svg" xmlns:xlink="http://www.w3.org/1999/xlink" width="54" zoomAndPan="magnify" viewBox="0 0 40.5 36.000001" height="48" preserveAspectRatio="xMidYMid meet" version="1.0"><defs><clipPath id="9e5be3159e"><path d="M 7.589844 6 L 32.398438 6 L 32.398438 35.027344 L 7.589844 35.027344 Z M 7.589844 6 " clip-rule="nonzero"/></clipPath></defs><g clip-path="url(#9e5be3159e)"><path fill="#e44d26" d="M 32.417969 6.882812 L 30.15625 32.207031 L 19.996094 35.027344 L 9.859375 32.210938 L 7.601562 6.882812 Z M 32.417969 6.882812 " fill-opacity="1" fill-rule="nonzero"/></g><path fill="#f16529" d="M 20.007812 32.871094 L 28.222656 30.597656 L 30.152344 8.953125 L 20.007812 8.953125 Z M 20.007812 32.871094 " fill-opacity="1" fill-rule="nonzero"/><path fill="#ebebeb" d="M 15.613281 15.167969 L 20.007812 15.167969 L 20.007812 12.058594 L 12.21875 12.058594 L 12.292969 12.894531 L 13.058594 21.453125 L 20.007812 21.453125 L 20.007812 18.347656 L 15.898438 18.347656 Z M 15.613281 15.167969 " fill-opacity="1" fill-rule="nonzero"/><path fill="#ebebeb" d="M 16.316406 23.007812 L 13.195312 23.007812 L 13.632812 27.886719 L 19.996094 29.652344 L 20.007812 29.648438 L 20.007812 26.417969 L 19.996094 26.421875 L 16.535156 25.484375 Z M 16.316406 23.007812 " fill-opacity="1" fill-rule="nonzero"/><path fill="#ebebeb" d="M 9.910156 0 L 11.488281 0 L 11.488281 1.558594 L 12.933594 1.558594 L 12.933594 0 L 14.511719 0 L 14.511719 4.722656 L 12.933594 4.722656 L 12.933594 3.140625 L 11.488281 3.140625 L 11.488281 4.722656 L 9.910156 4.722656 Z M 9.910156 0 " fill-opacity="1" fill-rule="nonzero"/><path fill="#ebebeb" d="M 16.589844 1.566406 L 15.199219 1.566406 L 15.199219 0 L 19.558594 0 L 19.558594 1.566406 L 18.167969 1.566406 L 18.167969 4.722656 L 16.589844 4.722656 Z M 16.589844 1.566406 " fill-opacity="1" fill-rule="nonzero"/><path fill="#ebebeb" d="M 20.25 0 L 21.894531 0 L 22.910156 1.660156 L 23.921875 0 L 25.566406 0 L 25.566406 4.722656 L 23.996094 4.722656 L 23.996094 2.382812 L 22.910156 4.0625 L 22.882812 4.0625 L 21.792969 2.382812 L 21.792969 4.722656 L 20.25 4.722656 Z M 20.25 0 " fill-opacity="1" fill-rule="nonzero"/><path fill="#ebebeb" d="M 26.351562 0 L 27.929688 0 L 27.929688 3.160156 L 30.152344 3.160156 L 30.152344 4.722656 L 26.351562 4.722656 Z M 26.351562 0 " fill-opacity="1" fill-rule="nonzero"/><path fill="#ffffff" d="M 20 21.453125 L 23.824219 21.453125 L 23.464844 25.484375 L 20 26.417969 L 20 29.652344 L 26.367188 27.886719 L 26.414062 27.359375 L 27.144531 19.183594 L 27.21875 18.347656 L 20 18.347656 Z M 20 21.453125 " fill-opacity="1" fill-rule="nonzero"/><path fill="#ffffff" d="M 20 15.160156 L 20 15.167969 L 27.503906 15.167969 L 27.566406 14.46875 L 27.707031 12.894531 L 27.78125 12.058594 L 20 12.058594 Z M 20 15.160156 " fill-opacity="1" fill-rule="nonzero"/></svg>