<svg xmlns="http://www.w3.org/2000/svg" xmlns:xlink="http://www.w3.org/1999/xlink" width="54" zoomAndPan="magnify" viewBox="0 0 40.5 36.000001" height="48" preserveAspectRatio="xMidYMid meet" version="1.0"><defs><clipPath id="1e42afca4f"><path d="M 7 21 L 8.472656 21 L 8.472656 21.890625 L 7 21.890625 Z M 7 21 " clip-rule="nonzero"/></clipPath><clipPath id="11a78bddfe"><path d="M 7 21 L 8 21 L 8 21.890625 L 7 21.890625 Z M 7 21 " clip-rule="nonzero"/></clipPath><clipPath id="468d461e4f"><path d="M 7 20 L 8.472656 20 L 8.472656 21 L 7 21 Z M 7 20 " clip-rule="nonzero"/></clipPath><clipPath id="20b25450a8"><path d="M 6.28125 19.703125 L 8 19.703125 L 8 21.890625 L 6.28125 21.890625 Z M 6.28125 19.703125 " clip-rule="nonzero"/></clipPath><clipPath id="39f56854ec"><path d="M 6.28125 19.703125 L 8.472656 19.703125 L 8.472656 21.890625 L 6.28125 21.890625 Z M 6.28125 19.703125 " clip-rule="nonzero"/></clipPath><clipPath id="0f66c1fe94"><path d="M 6.28125 20 L 8 20 L 8 21 L 6.28125 21 Z M 6.28125 20 " clip-rule="nonzero"/></clipPath><clipPath id="1d187423e7"><path d="M 7 19.703125 L 8.472656 19.703125 L 8.472656 21 L 7 21 Z M 7 19.703125 " clip-rule="nonzero"/></clipPath><clipPath id="1d6c804a0e"><path d="M 6.28125 19.703125 L 8.472656 19.703125 L 8.472656 21.890625 L 6.28125 21.890625 Z M 6.28125 19.703125 " clip-rule="nonzero"/></clipPath><clipPath id="1721a1cd2c"><path d="M 13 1 L 37.519531 1 L 37.519531 23 L 13 23 Z M 13 1 " clip-rule="nonzero"/></clipPath></defs><g clip-path="url(#1e42afca4f)"><path fill="#32648d" d="M 8.039062 21.035156 C 8.023438 21.039062 8.011719 21.042969 8.003906 21.046875 C 7.996094 21.050781 7.988281 21.058594 7.980469 21.066406 C 7.976562 21.074219 7.972656 21.09375 7.972656 21.125 C 7.976562 21.128906 7.980469 21.128906 7.984375 21.132812 C 8.003906 21.136719 8.027344 21.140625 8.058594 21.140625 C 8.117188 21.140625 8.191406 21.125 8.230469 21.109375 C 8.261719 21.09375 8.292969 21.074219 8.316406 21.050781 C 8.1875 21.078125 8.113281 21.070312 8.070312 21.054688 C 8.058594 21.046875 8.046875 21.042969 8.039062 21.035156 Z M 8.039062 21.035156 " fill-opacity="1" fill-rule="nonzero"/></g><g clip-path="url(#11a78bddfe)"><path fill="#32648d" d="M 7.3125 21.050781 C 7.304688 21.046875 7.300781 21.042969 7.292969 21.042969 L 7.289062 21.042969 C 7.285156 21.042969 7.277344 21.046875 7.265625 21.0625 C 7.234375 21.097656 7.222656 21.117188 7.195312 21.140625 C 7.167969 21.160156 7.132812 21.171875 7.0625 21.183594 C 7.042969 21.1875 7.03125 21.195312 7.019531 21.199219 C 7.023438 21.199219 7.023438 21.199219 7.027344 21.203125 C 7.039062 21.207031 7.050781 21.210938 7.0625 21.214844 C 7.089844 21.222656 7.140625 21.230469 7.191406 21.222656 C 7.242188 21.214844 7.296875 21.191406 7.339844 21.128906 C 7.347656 21.117188 7.347656 21.101562 7.34375 21.085938 C 7.335938 21.066406 7.320312 21.054688 7.3125 21.050781 Z M 7.3125 21.050781 " fill-opacity="1" fill-rule="nonzero"/></g><g clip-path="url(#468d461e4f)"><path fill="#32648d" d="M 7.953125 20.328125 C 7.890625 20.328125 7.855469 20.34375 7.835938 20.363281 C 7.808594 20.394531 7.808594 20.445312 7.824219 20.507812 C 7.839844 20.574219 7.875 20.644531 7.90625 20.703125 C 7.921875 20.730469 7.9375 20.757812 7.949219 20.78125 C 7.960938 20.800781 7.96875 20.816406 7.976562 20.832031 C 7.980469 20.84375 7.988281 20.851562 7.992188 20.863281 C 8.015625 20.8125 8.019531 20.765625 8.019531 20.710938 C 8.015625 20.648438 8 20.582031 8.003906 20.519531 C 8.003906 20.441406 8.019531 20.390625 8.023438 20.332031 C 8 20.328125 7.976562 20.328125 7.953125 20.328125 Z M 7.964844 20.371094 L 7.964844 20.375 C 7.964844 20.378906 7.964844 20.382812 7.960938 20.386719 C 7.957031 20.390625 7.953125 20.394531 7.949219 20.398438 C 7.941406 20.410156 7.929688 20.414062 7.914062 20.417969 C 7.914062 20.417969 7.910156 20.417969 7.910156 20.417969 C 7.898438 20.417969 7.886719 20.414062 7.878906 20.410156 C 7.871094 20.40625 7.867188 20.402344 7.867188 20.398438 L 7.863281 20.398438 C 7.863281 20.394531 7.859375 20.390625 7.859375 20.386719 C 7.859375 20.382812 7.859375 20.378906 7.863281 20.375 C 7.867188 20.371094 7.871094 20.371094 7.875 20.367188 C 7.882812 20.363281 7.894531 20.359375 7.910156 20.355469 C 7.914062 20.355469 7.917969 20.355469 7.921875 20.355469 L 7.929688 20.355469 C 7.933594 20.355469 7.941406 20.355469 7.945312 20.359375 C 7.949219 20.359375 7.953125 20.359375 7.957031 20.363281 C 7.960938 20.363281 7.964844 20.367188 7.964844 20.371094 Z M 7.964844 20.371094 " fill-opacity="1" fill-rule="nonzero"/></g><g clip-path="url(#20b25450a8)"><path fill="#32648d" d="M 6.917969 20.726562 C 6.917969 20.710938 6.917969 20.691406 6.921875 20.675781 L 6.921875 20.679688 C 6.933594 20.613281 6.933594 20.550781 6.933594 20.5 C 6.929688 20.453125 6.925781 20.421875 6.925781 20.402344 C 6.925781 20.398438 6.925781 20.398438 6.925781 20.398438 C 6.925781 20.289062 6.945312 20.1875 6.980469 20.09375 C 7.007812 20.023438 7.046875 19.957031 7.105469 19.902344 C 7.046875 19.882812 6.945312 19.855469 6.835938 19.851562 C 6.828125 19.847656 6.8125 19.847656 6.800781 19.847656 C 6.789062 19.847656 6.777344 19.847656 6.765625 19.851562 C 6.671875 19.855469 6.582031 19.882812 6.519531 19.949219 C 6.457031 20.011719 6.414062 20.121094 6.425781 20.296875 C 6.425781 20.332031 6.441406 20.425781 6.46875 20.539062 C 6.492188 20.648438 6.527344 20.78125 6.574219 20.898438 C 6.617188 21.015625 6.671875 21.117188 6.71875 21.164062 C 6.746094 21.1875 6.769531 21.199219 6.789062 21.195312 C 6.808594 21.195312 6.832031 21.183594 6.863281 21.148438 C 6.921875 21.082031 6.976562 21.019531 7.03125 20.960938 L 7.03125 20.964844 C 6.960938 20.90625 6.917969 20.820312 6.917969 20.726562 Z M 6.917969 20.726562 " fill-opacity="1" fill-rule="nonzero"/></g><g clip-path="url(#39f56854ec)"><path fill="#32648d" d="M 7.417969 19.84375 C 7.308594 19.84375 7.230469 19.875 7.171875 19.925781 C 7.109375 19.976562 7.066406 20.042969 7.039062 20.113281 C 7.007812 20.195312 6.996094 20.277344 6.992188 20.332031 C 7.027344 20.3125 7.070312 20.296875 7.117188 20.285156 C 7.164062 20.273438 7.214844 20.269531 7.257812 20.289062 C 7.304688 20.304688 7.34375 20.347656 7.355469 20.40625 C 7.421875 20.703125 7.335938 20.8125 7.304688 20.894531 C 7.292969 20.917969 7.285156 20.949219 7.273438 20.980469 L 7.273438 20.984375 C 7.277344 20.984375 7.28125 20.984375 7.285156 20.984375 C 7.308594 20.980469 7.324219 20.988281 7.335938 20.992188 C 7.367188 21.007812 7.390625 21.03125 7.402344 21.0625 C 7.402344 21.070312 7.40625 21.082031 7.40625 21.089844 C 7.410156 21.09375 7.410156 21.097656 7.410156 21.101562 C 7.40625 21.144531 7.40625 21.199219 7.40625 21.253906 C 7.40625 21.316406 7.410156 21.378906 7.410156 21.441406 C 7.414062 21.488281 7.414062 21.53125 7.417969 21.566406 C 7.425781 21.597656 7.429688 21.625 7.433594 21.632812 C 7.445312 21.660156 7.460938 21.699219 7.492188 21.726562 C 7.523438 21.75 7.570312 21.769531 7.652344 21.75 C 7.722656 21.734375 7.769531 21.714844 7.796875 21.6875 C 7.828125 21.65625 7.84375 21.613281 7.855469 21.550781 C 7.871094 21.457031 7.90625 21.179688 7.910156 21.128906 C 7.90625 21.089844 7.914062 21.058594 7.925781 21.035156 C 7.941406 21.011719 7.960938 21 7.976562 20.992188 C 7.988281 20.988281 7.996094 20.984375 8.003906 20.984375 C 7.992188 20.972656 7.988281 20.960938 7.980469 20.953125 C 7.957031 20.925781 7.933594 20.890625 7.917969 20.855469 C 7.90625 20.835938 7.898438 20.820312 7.890625 20.804688 L 7.894531 20.808594 C 7.882812 20.789062 7.867188 20.761719 7.847656 20.730469 C 7.816406 20.667969 7.78125 20.597656 7.761719 20.523438 C 7.746094 20.453125 7.742188 20.378906 7.789062 20.324219 C 7.832031 20.277344 7.902344 20.257812 8.015625 20.269531 C 8.011719 20.261719 8.007812 20.253906 8.003906 20.238281 C 7.976562 20.179688 7.945312 20.125 7.90625 20.078125 C 7.8125 19.964844 7.660156 19.847656 7.429688 19.84375 Z M 7.417969 19.84375 " fill-opacity="1" fill-rule="nonzero"/></g><g clip-path="url(#0f66c1fe94)"><path fill="#32648d" d="M 7.246094 20.871094 C 7.285156 20.773438 7.359375 20.703125 7.296875 20.421875 C 7.285156 20.375 7.265625 20.355469 7.238281 20.34375 C 7.222656 20.339844 7.207031 20.335938 7.191406 20.335938 C 7.191406 20.335938 7.1875 20.335938 7.1875 20.335938 C 7.167969 20.335938 7.148438 20.339844 7.128906 20.34375 C 7.089844 20.355469 7.054688 20.367188 7.023438 20.386719 C 7.011719 20.390625 7 20.398438 6.992188 20.40625 L 6.988281 20.40625 C 6.988281 20.421875 6.992188 20.453125 6.992188 20.5 C 6.996094 20.550781 6.992188 20.617188 6.984375 20.6875 C 6.960938 20.84375 7.078125 20.972656 7.210938 20.972656 C 7.21875 20.9375 7.234375 20.90625 7.246094 20.871094 Z M 7.164062 20.421875 C 7.160156 20.417969 7.15625 20.414062 7.15625 20.410156 C 7.152344 20.40625 7.152344 20.398438 7.152344 20.394531 C 7.152344 20.394531 7.152344 20.394531 7.152344 20.390625 C 7.152344 20.382812 7.160156 20.378906 7.167969 20.375 C 7.175781 20.371094 7.183594 20.371094 7.195312 20.371094 C 7.195312 20.371094 7.195312 20.371094 7.199219 20.371094 C 7.203125 20.371094 7.207031 20.371094 7.210938 20.371094 C 7.226562 20.375 7.238281 20.378906 7.25 20.382812 C 7.253906 20.386719 7.257812 20.390625 7.261719 20.394531 C 7.265625 20.394531 7.265625 20.402344 7.265625 20.40625 C 7.265625 20.40625 7.265625 20.40625 7.265625 20.410156 L 7.265625 20.40625 C 7.265625 20.414062 7.261719 20.417969 7.257812 20.421875 C 7.253906 20.425781 7.25 20.429688 7.246094 20.433594 C 7.238281 20.441406 7.226562 20.445312 7.210938 20.445312 C 7.210938 20.445312 7.207031 20.445312 7.203125 20.445312 C 7.1875 20.441406 7.175781 20.433594 7.164062 20.421875 Z M 7.164062 20.421875 " fill-opacity="1" fill-rule="nonzero"/></g><g clip-path="url(#1d187423e7)"><path fill="#32648d" d="M 7.957031 20.042969 C 7.996094 20.09375 8.03125 20.148438 8.058594 20.210938 L 8.0625 20.214844 C 8.070312 20.238281 8.078125 20.261719 8.082031 20.277344 C 8.085938 20.285156 8.085938 20.289062 8.085938 20.296875 C 8.085938 20.300781 8.085938 20.304688 8.085938 20.308594 C 8.085938 20.308594 8.085938 20.3125 8.085938 20.3125 C 8.085938 20.390625 8.066406 20.445312 8.066406 20.519531 C 8.0625 20.574219 8.078125 20.640625 8.082031 20.710938 C 8.085938 20.773438 8.074219 20.847656 8.03125 20.917969 C 8.035156 20.921875 8.039062 20.925781 8.042969 20.933594 C 8.160156 20.753906 8.242188 20.554688 8.289062 20.386719 C 8.3125 20.296875 8.324219 20.214844 8.324219 20.148438 C 8.328125 20.082031 8.3125 20.035156 8.296875 20.015625 C 8.171875 19.863281 8.003906 19.820312 7.863281 19.820312 L 7.851562 19.820312 C 7.796875 19.820312 7.742188 19.828125 7.691406 19.839844 C 7.808594 19.886719 7.894531 19.964844 7.957031 20.042969 Z M 7.957031 20.042969 " fill-opacity="1" fill-rule="nonzero"/></g><g clip-path="url(#1d6c804a0e)"><path fill="#000000" d="M 7.433594 19.726562 C 7.324219 19.722656 7.230469 19.75 7.152344 19.792969 C 7.078125 19.769531 6.925781 19.722656 6.761719 19.734375 C 6.648438 19.738281 6.523438 19.773438 6.429688 19.867188 C 6.339844 19.960938 6.292969 20.109375 6.300781 20.308594 C 6.304688 20.363281 6.320312 20.453125 6.347656 20.566406 C 6.375 20.683594 6.410156 20.820312 6.457031 20.941406 C 6.503906 21.066406 6.554688 21.179688 6.636719 21.253906 C 6.675781 21.292969 6.730469 21.324219 6.796875 21.320312 C 6.839844 21.320312 6.882812 21.300781 6.917969 21.269531 C 6.933594 21.292969 6.953125 21.304688 6.96875 21.3125 C 6.992188 21.324219 7.011719 21.332031 7.03125 21.335938 C 7.070312 21.34375 7.136719 21.359375 7.214844 21.34375 C 7.242188 21.339844 7.269531 21.332031 7.296875 21.320312 C 7.296875 21.351562 7.296875 21.378906 7.296875 21.410156 C 7.300781 21.503906 7.304688 21.589844 7.332031 21.664062 C 7.339844 21.679688 7.351562 21.742188 7.402344 21.796875 C 7.453125 21.855469 7.550781 21.890625 7.660156 21.867188 C 7.742188 21.851562 7.839844 21.820312 7.90625 21.726562 C 7.972656 21.636719 8.003906 21.503906 8.007812 21.292969 C 8.011719 21.28125 8.011719 21.273438 8.015625 21.261719 L 8.03125 21.265625 C 8.117188 21.265625 8.207031 21.253906 8.285156 21.222656 C 8.351562 21.191406 8.402344 21.160156 8.441406 21.105469 C 8.449219 21.089844 8.460938 21.074219 8.460938 21.046875 C 8.464844 21.019531 8.449219 20.976562 8.421875 20.953125 C 8.367188 20.914062 8.332031 20.929688 8.292969 20.9375 C 8.261719 20.945312 8.222656 20.949219 8.183594 20.949219 C 8.289062 20.773438 8.367188 20.585938 8.410156 20.421875 C 8.4375 20.324219 8.449219 20.234375 8.453125 20.15625 C 8.453125 20.074219 8.445312 20.003906 8.398438 19.945312 C 8.246094 19.757812 8.035156 19.703125 7.867188 19.703125 C 7.863281 19.703125 7.859375 19.703125 7.851562 19.703125 C 7.765625 19.703125 7.675781 19.714844 7.597656 19.738281 L 7.59375 19.742188 C 7.542969 19.734375 7.488281 19.726562 7.433594 19.726562 Z M 7.65625 19.785156 C 7.714844 19.769531 7.78125 19.761719 7.847656 19.761719 C 8.003906 19.757812 8.203125 19.800781 8.347656 19.980469 C 8.378906 20.019531 8.390625 20.078125 8.386719 20.148438 C 8.386719 20.222656 8.371094 20.308594 8.347656 20.402344 C 8.300781 20.585938 8.207031 20.796875 8.078125 20.988281 C 8.082031 20.992188 8.085938 20.996094 8.09375 20.996094 C 8.121094 21.007812 8.183594 21.015625 8.304688 20.992188 C 8.335938 20.988281 8.359375 20.980469 8.382812 21 C 8.390625 21.007812 8.398438 21.019531 8.398438 21.035156 C 8.398438 21.035156 8.398438 21.039062 8.398438 21.039062 C 8.398438 21.050781 8.390625 21.058594 8.386719 21.070312 C 8.363281 21.101562 8.316406 21.136719 8.253906 21.164062 C 8.203125 21.1875 8.125 21.199219 8.058594 21.199219 C 8.023438 21.199219 7.996094 21.199219 7.96875 21.191406 L 7.964844 21.191406 C 7.957031 21.285156 7.933594 21.476562 7.917969 21.5625 C 7.90625 21.632812 7.882812 21.6875 7.84375 21.726562 C 7.800781 21.769531 7.742188 21.792969 7.664062 21.808594 C 7.570312 21.832031 7.5 21.808594 7.453125 21.773438 C 7.410156 21.734375 7.386719 21.683594 7.375 21.65625 C 7.367188 21.632812 7.363281 21.609375 7.359375 21.570312 C 7.355469 21.535156 7.351562 21.492188 7.347656 21.441406 C 7.347656 21.390625 7.34375 21.332031 7.34375 21.273438 C 7.34375 21.253906 7.34375 21.234375 7.34375 21.214844 C 7.308594 21.25 7.257812 21.273438 7.203125 21.28125 C 7.136719 21.292969 7.082031 21.28125 7.046875 21.273438 C 7.027344 21.269531 7.011719 21.261719 6.996094 21.253906 C 6.980469 21.246094 6.96875 21.238281 6.957031 21.21875 C 6.953125 21.214844 6.949219 21.203125 6.949219 21.195312 C 6.949219 21.191406 6.953125 21.1875 6.953125 21.183594 C 6.957031 21.171875 6.960938 21.164062 6.972656 21.15625 C 6.992188 21.140625 7.015625 21.132812 7.050781 21.125 C 7.117188 21.113281 7.140625 21.101562 7.15625 21.09375 C 7.167969 21.082031 7.179688 21.0625 7.207031 21.035156 C 7.207031 21.035156 7.207031 21.035156 7.207031 21.03125 C 7.160156 21.03125 7.117188 21.019531 7.082031 21 C 7.066406 21.015625 6.996094 21.085938 6.910156 21.1875 C 6.875 21.230469 6.832031 21.257812 6.789062 21.257812 C 6.75 21.257812 6.710938 21.238281 6.675781 21.207031 C 6.613281 21.144531 6.558594 21.039062 6.515625 20.917969 C 6.46875 20.800781 6.433594 20.664062 6.40625 20.550781 C 6.378906 20.4375 6.363281 20.347656 6.363281 20.300781 C 6.351562 20.113281 6.398438 19.984375 6.476562 19.90625 C 6.550781 19.824219 6.660156 19.796875 6.761719 19.789062 C 6.949219 19.78125 7.125 19.84375 7.160156 19.855469 C 7.230469 19.8125 7.320312 19.78125 7.429688 19.785156 C 7.484375 19.785156 7.539062 19.792969 7.589844 19.804688 L 7.585938 19.804688 L 7.589844 19.804688 C 7.605469 19.796875 7.628906 19.789062 7.652344 19.785156 Z M 7.65625 19.785156 " fill-opacity="1" fill-rule="nonzero"/></g><path fill="#1266a9" d="M 5.347656 22.5625 C 5.382812 22.636719 5.417969 22.703125 5.460938 22.773438 C 5.476562 22.8125 5.503906 22.855469 5.527344 22.890625 C 5.5625 22.964844 5.601562 23.035156 5.640625 23.109375 L 5.863281 23.484375 C 5.90625 23.554688 5.945312 23.621094 5.992188 23.691406 C 6.070312 23.824219 6.164062 23.953125 6.246094 24.089844 C 6.28125 24.144531 6.316406 24.199219 6.359375 24.253906 C 6.515625 24.5 6.65625 24.703125 6.808594 24.898438 C 6.917969 25.042969 7.027344 25.1875 7.140625 25.332031 C 7.179688 25.386719 7.222656 25.441406 7.261719 25.496094 L 7.578125 25.875 C 7.617188 25.921875 7.65625 25.972656 7.695312 26.015625 C 7.835938 26.183594 7.984375 26.347656 8.132812 26.511719 C 8.132812 26.515625 8.136719 26.519531 8.140625 26.523438 C 8.324219 26.753906 8.519531 26.957031 8.738281 27.140625 L 8.742188 27.144531 C 8.855469 27.261719 8.96875 27.378906 9.089844 27.492188 L 9.234375 27.628906 C 9.394531 27.777344 9.550781 27.925781 9.71875 28.066406 C 9.722656 28.066406 9.722656 28.070312 9.726562 28.070312 L 9.804688 28.144531 C 9.953125 28.269531 10.097656 28.394531 10.246094 28.511719 L 10.425781 28.660156 C 10.546875 28.757812 10.671875 28.847656 10.796875 28.945312 L 10.988281 29.09375 C 11.121094 29.191406 11.261719 29.289062 11.398438 29.386719 C 11.449219 29.421875 11.496094 29.457031 11.550781 29.488281 L 11.589844 29.523438 L 11.992188 29.785156 L 12.160156 29.898438 C 12.371094 30.03125 12.578125 30.15625 12.785156 30.28125 C 12.847656 30.3125 12.90625 30.34375 12.960938 30.378906 C 13.117188 30.46875 13.273438 30.558594 13.429688 30.640625 C 13.515625 30.6875 13.605469 30.726562 13.691406 30.773438 C 13.796875 30.832031 13.910156 30.890625 14.023438 30.949219 C 14.054688 30.960938 14.082031 30.96875 14.105469 30.984375 L 14.113281 30.980469 C 14.160156 31 14.203125 31.023438 14.25 31.046875 C 14.417969 31.132812 14.597656 31.210938 14.78125 31.292969 C 14.816406 31.304688 14.855469 31.320312 14.890625 31.339844 C 15.097656 31.429688 15.300781 31.515625 15.511719 31.597656 C 15.5625 31.613281 15.613281 31.636719 15.664062 31.65625 C 15.855469 31.726562 16.050781 31.800781 16.25 31.871094 L 16.320312 31.898438 C 16.539062 31.972656 16.753906 32.042969 16.976562 32.109375 C 17.027344 32.125 17.078125 32.140625 17.132812 32.15625 C 17.359375 32.226562 17.578125 32.304688 17.808594 32.347656 C 32.4375 35 36.6875 23.597656 36.6875 23.597656 C 33.113281 28.226562 26.777344 29.445312 20.777344 28.085938 C 20.554688 28.035156 20.332031 27.964844 20.105469 27.898438 C 19.699219 27.78125 19.429688 27.695312 19.164062 27.601562 L 19.296875 27.644531 L 19.210938 27.609375 C 19.015625 27.542969 18.828125 27.46875 18.640625 27.398438 C 18.605469 27.382812 18.550781 27.363281 18.5 27.34375 L 18.484375 27.339844 C 18.273438 27.253906 18.070312 27.171875 17.867188 27.082031 C 17.824219 27.066406 17.785156 27.046875 17.742188 27.027344 C 17.371094 26.863281 17.199219 26.785156 17.03125 26.703125 L 17.226562 26.789062 C 17.175781 26.765625 17.128906 26.742188 17.078125 26.714844 C 16.941406 26.652344 16.808594 26.582031 16.679688 26.515625 C 16.554688 26.457031 16.46875 26.410156 16.382812 26.363281 L 16.410156 26.378906 C 16.25 26.292969 16.089844 26.199219 15.925781 26.113281 C 15.878906 26.078125 15.824219 26.050781 15.769531 26.019531 C 15.460938 25.839844 15.257812 25.710938 15.054688 25.582031 L 15.144531 25.636719 C 15.074219 25.59375 15.019531 25.558594 14.964844 25.519531 L 14.976562 25.523438 C 14.800781 25.414062 14.660156 25.324219 14.523438 25.226562 C 14.476562 25.195312 14.433594 25.164062 14.382812 25.128906 C 14.199219 25.003906 14.0625 24.90625 13.929688 24.804688 L 13.964844 24.828125 C 13.902344 24.78125 13.839844 24.734375 13.777344 24.6875 C 13.652344 24.589844 13.523438 24.496094 13.398438 24.390625 L 13.230469 24.257812 C 13.050781 24.113281 12.898438 23.988281 12.75 23.855469 C 12.738281 23.84375 12.722656 23.828125 12.703125 23.820312 L 12.703125 23.816406 L 12.207031 23.367188 L 12.066406 23.234375 C 11.949219 23.117188 11.828125 23.003906 11.710938 22.886719 L 11.570312 22.746094 C 11.421875 22.597656 11.28125 22.449219 11.140625 22.296875 L 11.132812 22.285156 L 11.109375 22.265625 C 10.957031 22.101562 10.808594 21.933594 10.660156 21.765625 C 10.625 21.71875 10.589844 21.671875 10.546875 21.625 L 10.226562 21.234375 C 10.113281 21.09375 9.953125 20.886719 9.796875 20.675781 L 9.742188 20.597656 C 6.410156 16.074219 5.207031 9.835938 7.871094 4.714844 L 5.519531 7.6875 C 2.492188 12.015625 2.867188 17.644531 5.179688 22.238281 C 5.234375 22.351562 5.292969 22.457031 5.347656 22.5625 Z M 5.347656 22.5625 " fill-opacity="1" fill-rule="nonzero"/><path fill="#000000" d="M 15.539062 16.328125 C 15.535156 16.320312 15.53125 16.3125 15.523438 16.304688 C 15.519531 16.300781 15.515625 16.292969 15.511719 16.289062 Z M 15.539062 16.328125 " fill-opacity="1" fill-rule="nonzero"/><g clip-path="url(#1721a1cd2c)"><path fill="#1266a9" d="M 17.132812 18.195312 L 17.261719 18.324219 C 17.421875 18.480469 17.589844 18.632812 17.757812 18.785156 L 17.78125 18.804688 C 17.949219 18.957031 18.144531 19.113281 18.339844 19.269531 L 18.371094 19.289062 C 18.417969 19.324219 18.460938 19.363281 18.507812 19.394531 C 18.707031 19.546875 18.90625 19.695312 19.117188 19.839844 L 19.136719 19.855469 C 19.226562 19.917969 19.320312 19.976562 19.421875 20.039062 C 19.460938 20.066406 19.503906 20.097656 19.546875 20.125 C 19.699219 20.222656 19.847656 20.3125 20 20.402344 C 20.023438 20.414062 20.046875 20.425781 20.066406 20.4375 C 20.195312 20.515625 20.335938 20.589844 20.46875 20.660156 C 20.515625 20.6875 20.5625 20.707031 20.609375 20.734375 C 20.707031 20.78125 20.800781 20.832031 20.890625 20.882812 L 20.9375 20.902344 C 21.128906 20.996094 21.324219 21.082031 21.515625 21.171875 C 21.566406 21.1875 21.605469 21.203125 21.648438 21.222656 C 21.804688 21.292969 21.96875 21.359375 22.125 21.417969 C 22.195312 21.441406 22.261719 21.46875 22.332031 21.492188 C 22.476562 21.546875 22.628906 21.597656 22.773438 21.644531 L 22.972656 21.710938 C 23.179688 21.773438 23.390625 21.859375 23.609375 21.890625 C 34.90625 23.75 37.519531 15.097656 37.519531 15.097656 C 35.167969 18.46875 30.613281 20.074219 25.757812 18.820312 C 25.464844 18.746094 25.25 18.683594 25.039062 18.613281 L 25.117188 18.636719 C 25.050781 18.617188 24.992188 18.597656 24.925781 18.578125 C 24.777344 18.527344 24.625 18.476562 24.480469 18.421875 L 24.277344 18.347656 C 24.117188 18.28125 23.953125 18.222656 23.796875 18.152344 C 23.75 18.132812 23.707031 18.117188 23.667969 18.097656 C 23.46875 18.007812 23.269531 17.917969 23.074219 17.824219 L 22.78125 17.671875 L 22.609375 17.585938 C 22.480469 17.519531 22.359375 17.449219 22.234375 17.375 C 22.199219 17.359375 22.167969 17.34375 22.140625 17.324219 L 22.144531 17.324219 C 21.996094 17.230469 21.835938 17.140625 21.691406 17.046875 C 21.644531 17.019531 21.601562 16.984375 21.554688 16.957031 L 21.257812 16.765625 C 21.054688 16.621094 20.851562 16.46875 20.648438 16.320312 C 20.601562 16.28125 20.558594 16.246094 20.515625 16.210938 C 18.378906 14.539062 16.699219 12.257812 15.898438 9.671875 C 15.058594 6.984375 15.242188 3.972656 16.695312 1.527344 L 14.910156 4.046875 C 12.714844 7.179688 12.839844 11.367188 14.546875 14.683594 C 14.859375 15.296875 15.175781 15.8125 15.523438 16.304688 C 15.847656 16.769531 16.207031 17.3125 16.640625 17.6875 C 16.792969 17.859375 16.960938 18.027344 17.132812 18.195312 Z M 17.132812 18.195312 " fill-opacity="1" fill-rule="nonzero"/></g><path fill="#000000" d="M 6.816406 24.90625 L 6.808594 24.898438 L 6.800781 24.886719 Z M 6.816406 24.90625 " fill-opacity="1" fill-rule="nonzero"/><path fill="#000000" d="M 12.738281 23.847656 L 12.75 23.855469 L 12.753906 23.859375 Z M 12.738281 23.847656 " fill-opacity="1" fill-rule="nonzero"/><path fill="#1266a9" d="M 22.804688 1.320312 C 21.511719 3.210938 21.386719 5.554688 22.277344 7.640625 C 23.226562 9.851562 25.160156 11.589844 27.417969 12.410156 C 27.507812 12.449219 27.597656 12.476562 27.695312 12.511719 L 27.820312 12.550781 C 27.949219 12.589844 28.082031 12.640625 28.21875 12.667969 C 34.457031 13.867188 36.144531 9.484375 36.597656 8.839844 C 35.113281 10.960938 32.625 11.46875 29.566406 10.730469 C 29.269531 10.65625 29.023438 10.578125 28.785156 10.488281 L 28.832031 10.503906 C 28.472656 10.378906 28.179688 10.257812 27.898438 10.121094 L 27.953125 10.144531 C 27.367188 9.859375 26.867188 9.550781 26.402344 9.199219 C 23.671875 7.132812 21.980469 3.203125 23.765625 0 Z M 22.804688 1.320312 " fill-opacity="1" fill-rule="nonzero"/></svg>