<svg xmlns="http://www.w3.org/2000/svg" xmlns:xlink="http://www.w3.org/1999/xlink" width="54" zoomAndPan="magnify" viewBox="0 0 40.5 36.000001" height="48" preserveAspectRatio="xMidYMid meet" version="1.0"><defs><clipPath id="9646210dc5"><path d="M 6.574219 3.503906 L 19.710938 3.503906 L 19.710938 17.367188 L 6.574219 17.367188 Z M 6.574219 3.503906 " clip-rule="nonzero"/></clipPath><clipPath id="792a63a73a"><path d="M 2.492188 0 L 37.519531 0 L 37.519531 35.027344 L 2.492188 35.027344 Z M 2.492188 0 " clip-rule="nonzero"/></clipPath></defs><path fill="#32648d" d="M 17.125 11.941406 C 17.042969 11.972656 16.976562 11.984375 16.917969 12.011719 C 16.859375 12.035156 16.8125 12.078125 16.785156 12.132812 C 16.75 12.199219 16.71875 12.316406 16.726562 12.515625 C 16.75 12.53125 16.777344 12.546875 16.808594 12.554688 C 16.90625 12.585938 17.066406 12.605469 17.246094 12.601562 C 17.601562 12.597656 18.039062 12.511719 18.273438 12.402344 C 18.472656 12.304688 18.644531 12.1875 18.800781 12.050781 C 18.019531 12.214844 17.582031 12.171875 17.3125 12.054688 C 17.242188 12.023438 17.179688 11.988281 17.125 11.941406 Z M 17.125 11.941406 " fill-opacity="1" fill-rule="nonzero"/><path fill="#32648d" d="M 16.328125 5.882812 L 16.335938 5.890625 Z M 16.328125 5.882812 " fill-opacity="1" fill-rule="nonzero"/><path fill="#32648d" d="M 12.753906 12.03125 C 12.71875 12.015625 12.679688 12.003906 12.640625 11.996094 L 12.625 11.996094 C 12.597656 12 12.554688 12.007812 12.46875 12.101562 C 12.273438 12.328125 12.207031 12.46875 12.046875 12.597656 C 11.886719 12.730469 11.675781 12.800781 11.261719 12.886719 C 11.128906 12.914062 11.054688 12.945312 11.003906 12.96875 C 11.019531 12.984375 11.019531 12.988281 11.042969 13 C 11.105469 13.035156 11.183594 13.0625 11.246094 13.082031 C 11.425781 13.125 11.71875 13.179688 12.023438 13.125 C 12.332031 13.074219 12.652344 12.921875 12.921875 12.53125 C 12.96875 12.464844 12.976562 12.363281 12.9375 12.257812 C 12.898438 12.148438 12.8125 12.058594 12.753906 12.03125 Z M 12.753906 12.03125 " fill-opacity="1" fill-rule="nonzero"/><path fill="#32648d" d="M 15.035156 4.363281 L 15.003906 4.371094 C 15.015625 4.367188 15.027344 4.367188 15.039062 4.363281 C 15.039062 4.363281 15.039062 4.363281 15.035156 4.363281 Z M 15.035156 4.363281 " fill-opacity="1" fill-rule="nonzero"/><path fill="#32648d" d="M 16.609375 7.457031 C 16.230469 7.460938 16.019531 7.5625 15.90625 7.691406 C 15.75 7.878906 15.734375 8.207031 15.832031 8.609375 C 15.929688 9.011719 16.132812 9.460938 16.320312 9.835938 C 16.417969 10.023438 16.507812 10.191406 16.582031 10.328125 C 16.65625 10.464844 16.710938 10.5625 16.746094 10.644531 C 16.777344 10.722656 16.8125 10.789062 16.847656 10.851562 C 16.992188 10.535156 17.019531 10.222656 17.003906 9.898438 C 16.984375 9.496094 16.894531 9.082031 16.90625 8.664062 C 16.921875 8.179688 17.015625 7.859375 17.023438 7.484375 C 16.898438 7.464844 16.757812 7.457031 16.609375 7.457031 Z M 16.679688 7.746094 L 16.679688 7.75 C 16.679688 7.753906 16.679688 7.753906 16.679688 7.757812 C 16.679688 7.78125 16.671875 7.808594 16.660156 7.828125 C 16.644531 7.859375 16.621094 7.890625 16.597656 7.914062 C 16.542969 7.976562 16.46875 8.019531 16.386719 8.035156 L 16.382812 8.035156 C 16.371094 8.035156 16.359375 8.039062 16.34375 8.039062 C 16.273438 8.039062 16.207031 8.015625 16.152344 7.976562 L 16.15625 7.976562 C 16.125 7.957031 16.101562 7.933594 16.082031 7.910156 C 16.0625 7.890625 16.050781 7.863281 16.046875 7.835938 C 16.046875 7.832031 16.046875 7.828125 16.046875 7.828125 C 16.046875 7.800781 16.054688 7.78125 16.070312 7.761719 C 16.089844 7.742188 16.109375 7.722656 16.136719 7.710938 C 16.191406 7.679688 16.261719 7.65625 16.34375 7.644531 C 16.375 7.640625 16.40625 7.636719 16.433594 7.636719 L 16.433594 7.640625 L 16.460938 7.640625 C 16.5 7.640625 16.53125 7.644531 16.5625 7.652344 C 16.59375 7.65625 16.617188 7.667969 16.640625 7.683594 C 16.660156 7.695312 16.675781 7.71875 16.679688 7.746094 Z M 16.679688 7.746094 " fill-opacity="1" fill-rule="nonzero"/><path fill="#32648d" d="M 10.382812 9.980469 C 10.382812 9.878906 10.390625 9.777344 10.40625 9.675781 L 10.40625 9.6875 C 10.464844 9.265625 10.472656 8.871094 10.464844 8.554688 C 10.457031 8.25 10.4375 8.050781 10.4375 7.921875 C 10.4375 7.921875 10.4375 7.917969 10.4375 7.917969 C 10.4375 7.914062 10.4375 7.914062 10.4375 7.910156 L 10.4375 7.90625 C 10.4375 7.902344 10.4375 7.902344 10.4375 7.902344 C 10.4375 7.222656 10.554688 6.574219 10.765625 5.96875 C 10.921875 5.542969 11.15625 5.109375 11.503906 4.761719 C 11.164062 4.644531 10.554688 4.46875 9.894531 4.433594 C 9.832031 4.429688 9.757812 4.429688 9.683594 4.429688 L 9.679688 4.429688 C 9.609375 4.429688 9.539062 4.433594 9.46875 4.4375 C 8.90625 4.46875 8.371094 4.636719 7.988281 5.050781 C 7.605469 5.464844 7.355469 6.148438 7.410156 7.273438 C 7.421875 7.484375 7.511719 8.082031 7.667969 8.792969 C 7.820312 9.5 8.039062 10.335938 8.304688 11.074219 C 8.570312 11.8125 8.890625 12.453125 9.191406 12.757812 C 9.347656 12.90625 9.480469 12.96875 9.601562 12.964844 C 9.722656 12.957031 9.867188 12.886719 10.046875 12.667969 C 10.394531 12.234375 10.726562 11.851562 11.066406 11.480469 L 11.058594 11.492188 C 10.644531 11.125 10.382812 10.585938 10.382812 9.980469 Z M 10.382812 9.980469 " fill-opacity="1" fill-rule="nonzero"/><path fill="#32648d" d="M 13.394531 4.402344 L 13.394531 4.398438 C 12.734375 4.402344 12.257812 4.605469 11.898438 4.914062 C 11.527344 5.230469 11.28125 5.664062 11.117188 6.105469 C 10.921875 6.632812 10.855469 7.144531 10.832031 7.492188 L 10.835938 7.484375 C 11.039062 7.371094 11.300781 7.257812 11.578125 7.191406 C 11.859375 7.125 12.164062 7.105469 12.4375 7.210938 C 12.710938 7.320312 12.9375 7.578125 13.019531 7.964844 C 13.410156 9.832031 12.894531 10.527344 12.707031 11.050781 C 12.644531 11.199219 12.582031 11.394531 12.53125 11.589844 L 12.519531 11.628906 C 12.546875 11.625 12.570312 11.617188 12.59375 11.613281 C 12.726562 11.601562 12.832031 11.648438 12.894531 11.675781 C 13.085938 11.757812 13.21875 11.929688 13.289062 12.125 C 13.308594 12.175781 13.320312 12.230469 13.328125 12.285156 C 13.335938 12.304688 13.339844 12.328125 13.339844 12.351562 C 13.339844 12.355469 13.339844 12.355469 13.339844 12.359375 C 13.328125 12.644531 13.324219 12.980469 13.324219 13.320312 C 13.324219 13.71875 13.332031 14.117188 13.347656 14.515625 C 13.359375 14.816406 13.378906 15.085938 13.402344 15.292969 C 13.425781 15.507812 13.460938 15.671875 13.480469 15.726562 C 13.554688 15.910156 13.65625 16.148438 13.847656 16.3125 C 14.035156 16.476562 14.304688 16.585938 14.800781 16.476562 C 15.230469 16.382812 15.496094 16.25 15.671875 16.0625 C 15.851562 15.871094 15.957031 15.609375 16.023438 15.207031 C 16.125 14.605469 16.328125 12.863281 16.351562 12.535156 C 16.339844 12.285156 16.375 12.097656 16.453125 11.953125 C 16.53125 11.800781 16.65625 11.710938 16.761719 11.664062 C 16.816406 11.636719 16.863281 11.621094 16.90625 11.609375 C 16.855469 11.535156 16.8125 11.476562 16.765625 11.417969 L 16.769531 11.421875 C 16.625 11.242188 16.5 11.035156 16.402344 10.808594 L 16.398438 10.792969 C 16.339844 10.671875 16.292969 10.582031 16.242188 10.496094 L 16.253906 10.515625 C 16.179688 10.378906 16.085938 10.207031 15.988281 10.015625 C 15.789062 9.628906 15.578125 9.160156 15.464844 8.703125 C 15.355469 8.246094 15.339844 7.773438 15.621094 7.441406 C 15.875 7.144531 16.316406 7.023438 16.976562 7.089844 C 16.960938 7.03125 16.945312 6.980469 16.914062 6.902344 C 16.753906 6.515625 16.558594 6.1875 16.328125 5.886719 C 15.765625 5.152344 14.859375 4.425781 13.457031 4.402344 Z M 13.394531 4.402344 " fill-opacity="1" fill-rule="nonzero"/><path fill="#32648d" d="M 11.652344 7.566406 L 11.660156 7.566406 L 11.664062 7.5625 Z M 11.652344 7.566406 " fill-opacity="1" fill-rule="nonzero"/><path fill="#32648d" d="M 12.355469 10.914062 C 12.582031 10.289062 13.027344 9.832031 12.652344 8.046875 C 12.589844 7.753906 12.46875 7.636719 12.300781 7.570312 C 12.21875 7.539062 12.125 7.523438 12.027344 7.523438 C 12.019531 7.523438 12.015625 7.523438 12.007812 7.523438 C 11.886719 7.523438 11.773438 7.539062 11.660156 7.566406 C 11.421875 7.625 11.210938 7.710938 11.019531 7.824219 C 10.945312 7.863281 10.882812 7.90625 10.824219 7.953125 L 10.8125 7.964844 C 10.816406 8.046875 10.832031 8.25 10.839844 8.546875 C 10.84375 8.875 10.835938 9.292969 10.777344 9.742188 C 10.640625 10.722656 11.335938 11.535156 12.152344 11.535156 C 12.199219 11.332031 12.277344 11.128906 12.355469 10.914062 Z M 11.875 8.066406 C 11.847656 8.039062 11.824219 8.007812 11.808594 7.976562 L 11.808594 7.972656 C 11.792969 7.949219 11.785156 7.921875 11.785156 7.886719 C 11.785156 7.882812 11.785156 7.878906 11.785156 7.871094 C 11.792969 7.808594 11.84375 7.777344 11.890625 7.761719 C 11.9375 7.746094 11.984375 7.738281 12.039062 7.738281 C 12.046875 7.738281 12.054688 7.738281 12.0625 7.738281 L 12.0625 7.734375 C 12.09375 7.734375 12.125 7.738281 12.15625 7.742188 C 12.242188 7.753906 12.316406 7.777344 12.375 7.8125 C 12.402344 7.828125 12.429688 7.847656 12.449219 7.871094 C 12.46875 7.894531 12.480469 7.925781 12.480469 7.957031 C 12.480469 7.960938 12.480469 7.964844 12.480469 7.972656 L 12.480469 7.96875 C 12.472656 8.003906 12.457031 8.035156 12.4375 8.058594 C 12.414062 8.085938 12.386719 8.113281 12.359375 8.132812 C 12.300781 8.175781 12.230469 8.199219 12.152344 8.199219 C 12.136719 8.199219 12.121094 8.199219 12.105469 8.199219 L 12.109375 8.199219 C 12.015625 8.183594 11.933594 8.136719 11.875 8.066406 Z M 11.875 8.066406 " fill-opacity="1" fill-rule="nonzero"/><path fill="#32648d" d="M 11.007812 7.828125 C 11.011719 7.824219 11.015625 7.824219 11.019531 7.824219 C 11.019531 7.824219 11.019531 7.820312 11.019531 7.820312 Z M 11.007812 7.828125 " fill-opacity="1" fill-rule="nonzero"/><path fill="#32648d" d="M 16.628906 5.652344 C 16.875 5.96875 17.085938 6.332031 17.25 6.722656 L 17.261719 6.753906 C 17.324219 6.902344 17.367188 7.03125 17.386719 7.128906 C 17.398438 7.179688 17.410156 7.222656 17.410156 7.265625 C 17.414062 7.289062 17.414062 7.308594 17.402344 7.347656 C 17.402344 7.351562 17.402344 7.355469 17.402344 7.355469 C 17.417969 7.859375 17.296875 8.199219 17.28125 8.675781 C 17.269531 9.023438 17.355469 9.433594 17.378906 9.878906 C 17.398438 10.296875 17.351562 10.753906 17.085938 11.207031 C 17.105469 11.234375 17.128906 11.261719 17.148438 11.289062 C 17.847656 10.15625 18.355469 8.90625 18.625 7.835938 C 18.769531 7.261719 18.84375 6.742188 18.851562 6.328125 C 18.855469 5.917969 18.78125 5.617188 18.6875 5.492188 C 17.9375 4.511719 16.921875 4.257812 16.070312 4.253906 L 15.988281 4.253906 C 15.660156 4.257812 15.34375 4.296875 15.039062 4.363281 C 15.734375 4.679688 16.257812 5.167969 16.628906 5.652344 Z M 16.628906 5.652344 " fill-opacity="1" fill-rule="nonzero"/><g clip-path="url(#9646210dc5)"><path fill="#000000" d="M 13.488281 3.652344 L 13.480469 3.652344 C 12.824219 3.640625 12.257812 3.804688 11.800781 4.074219 C 11.351562 3.914062 10.417969 3.640625 9.4375 3.695312 C 8.753906 3.734375 8.007812 3.945312 7.453125 4.546875 C 6.902344 5.144531 6.609375 6.070312 6.671875 7.332031 C 6.6875 7.679688 6.785156 8.246094 6.945312 8.980469 C 7.105469 9.714844 7.332031 10.574219 7.613281 11.359375 C 7.894531 12.144531 8.199219 12.847656 8.683594 13.328125 C 8.921875 13.566406 9.253906 13.769531 9.644531 13.753906 C 9.917969 13.742188 10.164062 13.617188 10.378906 13.4375 C 10.484375 13.578125 10.59375 13.636719 10.695312 13.695312 C 10.820312 13.765625 10.945312 13.816406 11.074219 13.847656 C 11.304688 13.90625 11.699219 13.984375 12.164062 13.90625 C 12.320312 13.878906 12.488281 13.824219 12.652344 13.75 C 12.660156 13.9375 12.664062 14.125 12.671875 14.3125 C 12.695312 14.90625 12.710938 15.453125 12.882812 15.933594 C 12.910156 16.011719 12.988281 16.417969 13.289062 16.773438 C 13.589844 17.132812 14.183594 17.355469 14.855469 17.207031 C 15.332031 17.101562 15.933594 16.914062 16.335938 16.328125 C 16.734375 15.75 16.914062 14.921875 16.949219 13.574219 C 16.957031 13.5 16.96875 13.4375 16.980469 13.382812 L 17.074219 13.390625 L 17.085938 13.390625 C 17.589844 13.414062 18.140625 13.339844 18.601562 13.121094 C 19.007812 12.925781 19.316406 12.730469 19.539062 12.386719 C 19.597656 12.300781 19.65625 12.195312 19.675781 12.015625 C 19.691406 11.839844 19.589844 11.558594 19.425781 11.429688 C 19.09375 11.171875 18.882812 11.269531 18.660156 11.316406 C 18.460938 11.363281 18.230469 11.394531 17.992188 11.402344 L 17.988281 11.402344 C 18.632812 10.285156 19.097656 9.101562 19.363281 8.050781 C 19.519531 7.433594 19.605469 6.863281 19.613281 6.363281 C 19.621094 5.863281 19.582031 5.421875 19.289062 5.039062 C 18.375 3.847656 17.09375 3.515625 16.101562 3.503906 C 16.074219 3.503906 16.042969 3.503906 16.011719 3.503906 C 15.472656 3.507812 14.953125 3.589844 14.460938 3.738281 L 14.4375 3.746094 C 14.152344 3.691406 13.824219 3.65625 13.488281 3.652344 Z M 14.828125 4.015625 C 15.175781 3.929688 15.570312 3.875 15.980469 3.871094 L 15.984375 3.871094 C 16.925781 3.859375 18.121094 4.128906 18.980469 5.257812 C 19.175781 5.511719 19.234375 5.878906 19.226562 6.335938 C 19.21875 6.792969 19.136719 7.335938 18.988281 7.933594 C 18.695312 9.09375 18.144531 10.441406 17.367188 11.652344 C 17.394531 11.671875 17.421875 11.6875 17.453125 11.699219 L 17.457031 11.703125 C 17.617188 11.769531 17.988281 11.828125 18.722656 11.671875 C 18.910156 11.632812 19.046875 11.605469 19.1875 11.714844 C 19.25 11.773438 19.289062 11.851562 19.289062 11.945312 C 19.289062 11.949219 19.289062 11.957031 19.289062 11.960938 C 19.28125 12.035156 19.253906 12.097656 19.214844 12.152344 C 19.074219 12.371094 18.792969 12.582031 18.433594 12.753906 C 18.113281 12.90625 17.65625 12.984375 17.25 12.988281 C 17.046875 12.992188 16.859375 12.976562 16.699219 12.925781 L 16.6875 12.921875 C 16.628906 13.527344 16.484375 14.726562 16.394531 15.273438 C 16.320312 15.714844 16.191406 16.066406 15.945312 16.328125 C 15.699219 16.589844 15.351562 16.75 14.882812 16.851562 C 14.300781 16.980469 13.878906 16.839844 13.605469 16.605469 C 13.332031 16.371094 13.210938 16.058594 13.132812 15.867188 C 13.082031 15.738281 13.054688 15.566406 13.03125 15.339844 C 13.003906 15.109375 12.984375 14.832031 12.972656 14.515625 C 12.960938 14.195312 12.953125 13.820312 12.953125 13.445312 C 12.953125 13.320312 12.953125 13.195312 12.957031 13.070312 C 12.722656 13.292969 12.425781 13.445312 12.097656 13.503906 L 12.089844 13.507812 C 11.703125 13.574219 11.359375 13.507812 11.152344 13.453125 C 11.042969 13.425781 10.949219 13.386719 10.859375 13.339844 C 10.765625 13.285156 10.675781 13.226562 10.617188 13.113281 C 10.59375 13.066406 10.578125 13.015625 10.578125 12.957031 C 10.578125 12.9375 10.582031 12.914062 10.585938 12.894531 C 10.605469 12.816406 10.648438 12.75 10.707031 12.707031 C 10.816406 12.613281 10.964844 12.5625 11.183594 12.515625 C 11.585938 12.429688 11.726562 12.371094 11.8125 12.300781 C 11.886719 12.242188 11.96875 12.121094 12.113281 11.945312 C 12.113281 11.941406 12.113281 11.933594 12.109375 11.925781 L 12.109375 11.921875 C 11.835938 11.914062 11.582031 11.839844 11.359375 11.710938 L 11.367188 11.71875 C 11.285156 11.808594 10.855469 12.273438 10.332031 12.914062 C 10.113281 13.183594 9.871094 13.339844 9.617188 13.351562 C 9.359375 13.363281 9.128906 13.230469 8.933594 13.035156 C 8.539062 12.644531 8.226562 11.96875 7.953125 11.210938 C 7.679688 10.449219 7.457031 9.601562 7.300781 8.878906 C 7.140625 8.15625 7.046875 7.574219 7.035156 7.292969 C 6.976562 6.101562 7.246094 5.296875 7.714844 4.789062 C 8.183594 4.285156 8.824219 4.089844 9.445312 4.054688 C 10.566406 3.988281 11.632812 4.390625 11.847656 4.476562 C 12.261719 4.1875 12.796875 4.007812 13.464844 4.019531 C 13.800781 4.023438 14.125 4.070312 14.433594 4.148438 L 14.402344 4.144531 L 14.414062 4.136719 C 14.523438 4.097656 14.660156 4.054688 14.800781 4.019531 Z M 14.828125 4.015625 " fill-opacity="1" fill-rule="nonzero"/></g><g clip-path="url(#792a63a73a)"><path fill="#eee400" d="M 29.339844 32.28125 C 26.28125 32.28125 24.304688 30.824219 23.34375 28.917969 L 26.023438 27.367188 C 26.726562 28.519531 27.644531 29.363281 29.265625 29.363281 C 30.628906 29.363281 31.5 28.683594 31.5 27.742188 C 31.5 26.328125 29.613281 25.773438 28.28125 25.203125 C 25.90625 24.191406 24.328125 22.921875 24.328125 20.242188 C 24.328125 17.773438 26.210938 15.894531 29.148438 15.894531 C 31.242188 15.894531 32.746094 16.621094 33.828125 18.523438 L 31.265625 20.171875 C 30.703125 19.160156 30.089844 18.761719 29.148438 18.761719 C 28.183594 18.761719 27.574219 19.371094 27.574219 20.171875 C 27.574219 21.160156 28.183594 21.558594 29.597656 22.167969 C 32.554688 23.4375 34.792969 24.433594 34.792969 27.695312 C 34.792969 30.660156 32.464844 32.28125 29.339844 32.28125 Z M 21.757812 27.320312 C 21.757812 30.730469 19.65625 32.53125 16.742188 32.53125 C 14.109375 32.53125 12.53125 31.523438 11.753906 29.773438 L 11.707031 29.773438 L 14.386719 27.902344 C 14.902344 28.816406 15.371094 29.46875 16.496094 29.46875 C 17.578125 29.46875 18.253906 28.917969 18.253906 27.273438 L 18.253906 15.761719 L 21.757812 15.761719 Z M 2.492188 35.027344 L 37.519531 35.027344 L 37.519531 0 L 2.492188 0 Z M 2.492188 35.027344 " fill-opacity="1" fill-rule="evenodd"/></g></svg>