<svg xmlns="http://www.w3.org/2000/svg" xmlns:xlink="http://www.w3.org/1999/xlink" width="54" zoomAndPan="magnify" viewBox="0 0 40.5 36.000001" height="48" preserveAspectRatio="xMidYMid meet" version="1.0"><defs><clipPath id="d9fd43ca8e"><path d="M 0.304688 19 L 17 19 L 17 27.59375 L 0.304688 27.59375 Z M 0.304688 19 " clip-rule="nonzero"/></clipPath><clipPath id="f8386bf51f"><path d="M 24 7.160156 L 39.710938 7.160156 L 39.710938 22 L 24 22 Z M 24 7.160156 " clip-rule="nonzero"/></clipPath><clipPath id="f7d81fdd71"><path d="M 37 24 L 39.710938 24 L 39.710938 26 L 37 26 Z M 37 24 " clip-rule="nonzero"/></clipPath></defs><g clip-path="url(#d9fd43ca8e)"><path fill="#00618a" d="M 0.457031 25.828125 L 1.746094 25.828125 L 1.746094 20.808594 L 3.738281 25.183594 C 3.976562 25.714844 4.296875 25.902344 4.929688 25.902344 C 5.558594 25.902344 5.871094 25.714844 6.105469 25.183594 L 8.101562 20.808594 L 8.101562 25.828125 L 9.386719 25.828125 L 9.386719 20.816406 C 9.386719 20.328125 9.1875 20.089844 8.78125 19.96875 C 7.800781 19.667969 7.144531 19.925781 6.847656 20.578125 L 4.890625 24.898438 L 2.996094 20.578125 C 2.710938 19.925781 2.042969 19.664062 1.066406 19.964844 C 0.65625 20.089844 0.457031 20.324219 0.457031 20.8125 Z M 10.457031 21.738281 L 11.746094 21.738281 L 11.746094 24.507812 C 11.734375 24.65625 11.796875 25.011719 12.5 25.019531 C 12.859375 25.027344 15.277344 25.019531 15.300781 25.019531 L 15.300781 21.726562 L 16.59375 21.726562 C 16.597656 21.726562 16.589844 26.21875 16.589844 26.238281 C 16.597656 27.347656 15.199219 27.585938 14.554688 27.605469 L 10.488281 27.605469 L 10.488281 26.75 L 14.5625 26.75 C 15.390625 26.664062 15.292969 26.257812 15.292969 26.117188 L 15.292969 25.785156 L 12.554688 25.785156 C 11.28125 25.773438 10.46875 25.226562 10.460938 24.59375 C 10.457031 24.535156 10.488281 21.765625 10.457031 21.738281 Z M 10.457031 21.738281 " fill-opacity="1" fill-rule="nonzero"/></g><path fill="#e48e00" d="M 17.585938 25.828125 L 21.289062 25.828125 C 21.722656 25.828125 22.144531 25.738281 22.476562 25.582031 C 23.035156 25.332031 23.308594 24.988281 23.308594 24.539062 L 23.308594 23.609375 C 23.308594 23.242188 23 22.902344 22.390625 22.671875 C 22.070312 22.550781 21.671875 22.484375 21.289062 22.484375 L 19.726562 22.484375 C 19.207031 22.484375 18.960938 22.332031 18.898438 21.988281 C 18.886719 21.945312 18.886719 21.914062 18.886719 21.875 L 18.886719 21.296875 C 18.886719 21.261719 18.886719 21.230469 18.898438 21.1875 C 18.960938 20.929688 19.097656 20.855469 19.554688 20.8125 C 19.59375 20.8125 19.640625 20.804688 19.679688 20.804688 L 23.359375 20.804688 L 23.359375 19.957031 L 19.742188 19.957031 C 19.222656 19.957031 18.949219 19.988281 18.699219 20.0625 C 17.929688 20.296875 17.597656 20.675781 17.597656 21.328125 L 17.597656 22.070312 C 17.597656 22.640625 18.253906 23.128906 19.355469 23.242188 C 19.480469 23.25 19.605469 23.257812 19.726562 23.257812 L 21.066406 23.257812 C 21.113281 23.257812 21.164062 23.257812 21.203125 23.269531 C 21.609375 23.300781 21.785156 23.375 21.90625 23.519531 C 21.984375 23.597656 22.007812 23.667969 22.007812 23.746094 L 22.007812 24.488281 C 22.007812 24.578125 21.945312 24.691406 21.820312 24.789062 C 21.710938 24.886719 21.523438 24.953125 21.277344 24.96875 C 21.226562 24.96875 21.1875 24.976562 21.140625 24.976562 L 17.585938 24.976562 Z M 31.34375 24.351562 C 31.34375 25.222656 32 25.714844 33.324219 25.8125 C 33.449219 25.820312 33.570312 25.828125 33.695312 25.828125 L 37.054688 25.828125 L 37.054688 24.980469 L 33.671875 24.980469 C 32.914062 24.980469 32.632812 24.792969 32.632812 24.34375 L 32.632812 19.957031 L 31.34375 19.957031 Z M 24.128906 24.394531 L 24.128906 21.375 C 24.128906 20.605469 24.675781 20.140625 25.753906 19.992188 C 25.871094 19.976562 25.988281 19.96875 26.101562 19.96875 L 28.546875 19.96875 C 28.667969 19.96875 28.789062 19.976562 28.90625 19.992188 C 29.988281 20.140625 30.535156 20.605469 30.535156 21.375 L 30.535156 24.394531 C 30.535156 25.019531 30.300781 25.351562 29.765625 25.570312 L 31.035156 26.699219 L 29.539062 26.699219 L 28.515625 25.785156 L 27.480469 25.851562 L 26.101562 25.851562 C 25.867188 25.851562 25.617188 25.816406 25.347656 25.746094 C 24.523438 25.523438 24.128906 25.097656 24.128906 24.394531 Z M 25.519531 24.320312 C 25.519531 24.363281 25.53125 24.402344 25.542969 24.453125 C 25.621094 24.804688 25.953125 25 26.460938 25 L 27.632812 25 L 26.554688 24.039062 L 28.050781 24.039062 L 28.988281 24.875 C 29.160156 24.785156 29.273438 24.648438 29.3125 24.46875 C 29.324219 24.425781 29.324219 24.386719 29.324219 24.34375 L 29.324219 21.449219 C 29.324219 21.414062 29.324219 21.371094 29.3125 21.332031 C 29.234375 21.007812 28.902344 20.820312 28.40625 20.820312 L 26.464844 20.820312 C 25.890625 20.820312 25.519531 21.0625 25.519531 21.449219 L 25.519531 24.324219 Z M 25.519531 24.320312 " fill-opacity="1" fill-rule="nonzero"/><g clip-path="url(#f8386bf51f)"><path fill="#00618a" d="M 38.183594 18.550781 C 37.394531 18.53125 36.789062 18.601562 36.273438 18.816406 C 36.125 18.878906 35.890625 18.878906 35.867188 19.0625 C 35.945312 19.144531 35.960938 19.269531 36.023438 19.375 C 36.148438 19.570312 36.355469 19.835938 36.542969 19.972656 C 36.746094 20.125 36.953125 20.289062 37.171875 20.417969 C 37.558594 20.652344 37.992188 20.785156 38.367188 21.019531 C 38.585938 21.15625 38.804688 21.328125 39.019531 21.484375 C 39.125 21.5625 39.195312 21.683594 39.332031 21.730469 L 39.332031 21.707031 C 39.261719 21.617188 39.242188 21.492188 39.175781 21.398438 L 38.882812 21.109375 C 38.597656 20.730469 38.234375 20.402344 37.847656 20.128906 C 37.539062 19.910156 36.851562 19.617188 36.722656 19.261719 L 36.699219 19.238281 C 36.917969 19.214844 37.171875 19.136719 37.375 19.085938 C 37.714844 18.996094 38.015625 19.019531 38.367188 18.929688 L 38.839844 18.796875 L 38.839844 18.707031 C 38.660156 18.527344 38.535156 18.289062 38.34375 18.128906 C 37.839844 17.703125 37.289062 17.28125 36.722656 16.929688 C 36.410156 16.730469 36.019531 16.605469 35.6875 16.4375 C 35.574219 16.382812 35.378906 16.355469 35.304688 16.261719 C 35.128906 16.039062 35.035156 15.761719 34.898438 15.507812 C 34.617188 14.96875 34.339844 14.382812 34.089844 13.816406 C 33.917969 13.433594 33.804688 13.050781 33.59375 12.707031 C 32.570312 11.046875 31.46875 10.046875 29.765625 9.0625 C 29.402344 8.851562 28.964844 8.769531 28.503906 8.660156 L 27.761719 8.617188 C 27.609375 8.554688 27.453125 8.371094 27.3125 8.28125 C 26.746094 7.929688 25.296875 7.164062 24.878906 8.167969 C 24.617188 8.804688 25.273438 9.425781 25.511719 9.746094 C 25.675781 9.972656 25.886719 10.226562 26.003906 10.480469 C 26.082031 10.648438 26.097656 10.816406 26.164062 10.992188 C 26.328125 11.425781 26.46875 11.902344 26.679688 12.304688 C 26.789062 12.507812 26.90625 12.722656 27.042969 12.90625 C 27.125 13.015625 27.265625 13.066406 27.289062 13.238281 C 27.148438 13.429688 27.140625 13.726562 27.0625 13.972656 C 26.710938 15.066406 26.84375 16.429688 27.355469 17.238281 C 27.511719 17.488281 27.882812 18.023438 28.390625 17.816406 C 28.835938 17.636719 28.734375 17.085938 28.863281 16.59375 C 28.894531 16.484375 28.875 16.402344 28.933594 16.328125 L 28.933594 16.351562 L 29.335938 17.152344 C 29.636719 17.628906 30.167969 18.125 30.621094 18.460938 C 30.855469 18.636719 31.039062 18.9375 31.339844 19.039062 L 31.339844 19.019531 L 31.320312 19.019531 C 31.261719 18.925781 31.167969 18.890625 31.09375 18.816406 C 30.917969 18.648438 30.722656 18.4375 30.574219 18.242188 C 30.164062 17.691406 29.804688 17.089844 29.472656 16.460938 C 29.316406 16.164062 29.175781 15.832031 29.042969 15.527344 C 28.992188 15.410156 28.996094 15.234375 28.886719 15.171875 C 28.742188 15.394531 28.527344 15.574219 28.414062 15.839844 C 28.234375 16.261719 28.210938 16.773438 28.144531 17.308594 C 28.105469 17.320312 28.121094 17.3125 28.097656 17.328125 C 27.785156 17.253906 27.675781 16.9375 27.558594 16.660156 C 27.265625 15.96875 27.210938 14.855469 27.46875 14.0625 C 27.535156 13.855469 27.839844 13.207031 27.714844 13.015625 C 27.65625 12.828125 27.464844 12.714844 27.355469 12.570312 C 27.222656 12.394531 27.089844 12.15625 26.996094 11.949219 C 26.753906 11.410156 26.640625 10.804688 26.386719 10.261719 C 26.265625 10 26.0625 9.734375 25.894531 9.503906 C 25.707031 9.25 25.496094 9.058594 25.351562 8.75 C 25.300781 8.640625 25.230469 8.464844 25.308594 8.351562 C 25.324219 8.277344 25.367188 8.234375 25.441406 8.21875 C 25.574219 8.117188 25.9375 8.25 26.074219 8.308594 C 26.433594 8.457031 26.734375 8.597656 27.042969 8.796875 C 27.1875 8.890625 27.335938 9.078125 27.515625 9.128906 L 27.714844 9.128906 C 28.035156 9.203125 28.386719 9.152344 28.683594 9.242188 C 29.207031 9.398438 29.675781 9.644531 30.101562 9.90625 C 31.402344 10.71875 32.460938 11.867188 33.1875 13.246094 C 33.304688 13.464844 33.355469 13.675781 33.457031 13.910156 C 33.664062 14.382812 33.925781 14.871094 34.132812 15.332031 C 34.339844 15.796875 34.539062 16.261719 34.832031 16.644531 C 34.984375 16.847656 35.574219 16.957031 35.84375 17.066406 C 36.03125 17.144531 36.339844 17.226562 36.519531 17.335938 C 36.859375 17.539062 37.191406 17.777344 37.511719 18 C 37.671875 18.113281 38.160156 18.355469 38.1875 18.558594 Z M 38.183594 18.550781 " fill-opacity="1" fill-rule="nonzero"/></g><path fill="#00618a" d="M 28.121094 10.082031 C 27.957031 10.078125 27.839844 10.097656 27.71875 10.125 L 27.71875 10.148438 L 27.738281 10.148438 C 27.816406 10.308594 27.957031 10.410156 28.054688 10.546875 L 28.28125 11.015625 L 28.300781 10.992188 C 28.441406 10.894531 28.503906 10.742188 28.503906 10.503906 C 28.449219 10.445312 28.441406 10.375 28.390625 10.304688 C 28.328125 10.210938 28.203125 10.160156 28.121094 10.082031 Z M 28.121094 10.082031 " fill-opacity="1" fill-rule="evenodd"/><g clip-path="url(#f7d81fdd71)"><path fill="#e48e00" d="M 37.660156 24.957031 C 37.660156 25.515625 38.105469 25.894531 38.609375 25.894531 C 39.109375 25.894531 39.558594 25.515625 39.558594 24.957031 C 39.558594 24.394531 39.109375 24.019531 38.609375 24.019531 C 38.105469 24.019531 37.660156 24.394531 37.660156 24.957031 Z M 39.34375 24.957031 C 39.34375 25.378906 39.015625 25.699219 38.605469 25.699219 C 38.195312 25.699219 37.871094 25.378906 37.871094 24.957031 C 37.871094 24.53125 38.195312 24.214844 38.605469 24.214844 C 39.015625 24.214844 39.34375 24.53125 39.34375 24.957031 Z M 38.863281 25.492188 L 39.074219 25.492188 L 38.765625 25.019531 C 38.929688 25.003906 39.058594 24.921875 39.058594 24.726562 C 39.058594 24.511719 38.917969 24.421875 38.648438 24.421875 L 38.226562 24.421875 L 38.226562 25.492188 L 38.410156 25.492188 L 38.410156 25.027344 L 38.578125 25.027344 Z M 38.410156 24.878906 L 38.410156 24.570312 L 38.621094 24.570312 C 38.730469 24.570312 38.859375 24.589844 38.859375 24.714844 C 38.859375 24.867188 38.742188 24.878906 38.605469 24.878906 Z M 38.410156 24.878906 " fill-opacity="1" fill-rule="evenodd"/></g></svg>