<svg xmlns="http://www.w3.org/2000/svg" xmlns:xlink="http://www.w3.org/1999/xlink" width="54" zoomAndPan="magnify" viewBox="0 0 40.5 36.000001" height="48" preserveAspectRatio="xMidYMid meet" version="1.0"><defs><clipPath id="898d84b149"><path d="M 0.375 7.339844 L 39.65625 7.339844 L 39.65625 27.773438 L 0.375 27.773438 Z M 0.375 7.339844 " clip-rule="nonzero"/></clipPath><clipPath id="e92b98b922"><path d="M 0.414062 17.570312 C 0.414062 23.214844 9.191406 27.789062 20.015625 27.789062 C 30.84375 27.789062 39.621094 23.214844 39.621094 17.570312 C 39.621094 11.929688 30.84375 7.351562 20.015625 7.351562 C 9.191406 7.351562 0.414062 11.929688 0.414062 17.570312 " clip-rule="nonzero"/></clipPath><clipPath id="79efa52dcd"><path d="M 0.414062 17.570312 C 0.414062 23.214844 9.191406 27.789062 20.015625 27.789062 C 30.84375 27.789062 39.621094 23.214844 39.621094 17.570312 C 39.621094 11.929688 30.84375 7.351562 20.015625 7.351562 C 9.191406 7.351562 0.414062 11.929688 0.414062 17.570312 " clip-rule="nonzero"/></clipPath><radialGradient gradientTransform="matrix(1.004633, 0, 0, 0.995367, 12.182697, 10.945153)" gradientUnits="userSpaceOnUse" r="25.624459" cx="0" id="1e6977783c" cy="0" fx="0" fy="0"><stop stop-opacity="1" stop-color="rgb(68.199158%, 69.799805%, 83.499146%)" offset="0"/><stop stop-opacity="1" stop-color="rgb(68.199158%, 69.799805%, 83.499146%)" offset="0.25"/><stop stop-opacity="1" stop-color="rgb(68.164062%, 69.764709%, 83.473206%)" offset="0.296875"/><stop stop-opacity="1" stop-color="rgb(67.956543%, 69.555664%, 83.317566%)" offset="0.300781"/><stop stop-opacity="1" stop-color="rgb(67.608643%, 69.20929%, 83.059692%)" offset="0.304688"/><stop stop-opacity="1" stop-color="rgb(67.260742%, 68.861389%, 82.800293%)" offset="0.308594"/><stop stop-opacity="1" stop-color="rgb(66.914368%, 68.513489%, 82.542419%)" offset="0.3125"/><stop stop-opacity="1" stop-color="rgb(66.566467%, 68.167114%, 82.28302%)" offset="0.316406"/><stop stop-opacity="1" stop-color="rgb(66.220093%, 67.819214%, 82.025146%)" offset="0.320312"/><stop stop-opacity="1" stop-color="rgb(65.872192%, 67.472839%, 81.765747%)" offset="0.324219"/><stop stop-opacity="1" stop-color="rgb(65.525818%, 67.124939%, 81.506348%)" offset="0.328125"/><stop stop-opacity="1" stop-color="rgb(65.177917%, 66.778564%, 81.248474%)" offset="0.332031"/><stop stop-opacity="1" stop-color="rgb(64.831543%, 66.430664%, 80.989075%)" offset="0.335938"/><stop stop-opacity="1" stop-color="rgb(64.483643%, 66.08429%, 80.731201%)" offset="0.339844"/><stop stop-opacity="1" stop-color="rgb(64.135742%, 65.736389%, 80.471802%)" offset="0.34375"/><stop stop-opacity="1" stop-color="rgb(63.789368%, 65.388489%, 80.213928%)" offset="0.347656"/><stop stop-opacity="1" stop-color="rgb(63.441467%, 65.042114%, 79.954529%)" offset="0.351562"/><stop stop-opacity="1" stop-color="rgb(63.095093%, 64.694214%, 79.696655%)" offset="0.355469"/><stop stop-opacity="1" stop-color="rgb(62.747192%, 64.347839%, 79.437256%)" offset="0.359375"/><stop stop-opacity="1" stop-color="rgb(62.400818%, 63.999939%, 79.179382%)" offset="0.363281"/><stop stop-opacity="1" stop-color="rgb(62.052917%, 63.653564%, 78.919983%)" offset="0.367188"/><stop stop-opacity="1" stop-color="rgb(61.706543%, 63.305664%, 78.662109%)" offset="0.371094"/><stop stop-opacity="1" stop-color="rgb(61.358643%, 62.95929%, 78.40271%)" offset="0.375"/><stop stop-opacity="1" stop-color="rgb(61.010742%, 62.611389%, 78.144836%)" offset="0.378906"/><stop stop-opacity="1" stop-color="rgb(60.664368%, 62.263489%, 77.885437%)" offset="0.382812"/><stop stop-opacity="1" stop-color="rgb(60.316467%, 61.917114%, 77.627563%)" offset="0.386719"/><stop stop-opacity="1" stop-color="rgb(59.970093%, 61.569214%, 77.368164%)" offset="0.390625"/><stop stop-opacity="1" stop-color="rgb(59.622192%, 61.222839%, 77.108765%)" offset="0.394531"/><stop stop-opacity="1" stop-color="rgb(59.275818%, 60.874939%, 76.850891%)" offset="0.398438"/><stop stop-opacity="1" stop-color="rgb(58.927917%, 60.528564%, 76.591492%)" offset="0.402344"/><stop stop-opacity="1" stop-color="rgb(58.581543%, 60.180664%, 76.333618%)" offset="0.40625"/><stop stop-opacity="1" stop-color="rgb(58.233643%, 59.83429%, 76.074219%)" offset="0.410156"/><stop stop-opacity="1" stop-color="rgb(57.885742%, 59.486389%, 75.816345%)" offset="0.414062"/><stop stop-opacity="1" stop-color="rgb(57.539368%, 59.138489%, 75.556946%)" offset="0.417969"/><stop stop-opacity="1" stop-color="rgb(57.191467%, 58.792114%, 75.299072%)" offset="0.421875"/><stop stop-opacity="1" stop-color="rgb(56.845093%, 58.444214%, 75.039673%)" offset="0.425781"/><stop stop-opacity="1" stop-color="rgb(56.497192%, 58.097839%, 74.781799%)" offset="0.429688"/><stop stop-opacity="1" stop-color="rgb(56.150818%, 57.749939%, 74.5224%)" offset="0.433594"/><stop stop-opacity="1" stop-color="rgb(55.802917%, 57.403564%, 74.264526%)" offset="0.4375"/><stop stop-opacity="1" stop-color="rgb(55.456543%, 57.055664%, 74.005127%)" offset="0.441406"/><stop stop-opacity="1" stop-color="rgb(55.108643%, 56.70929%, 73.747253%)" offset="0.445312"/><stop stop-opacity="1" stop-color="rgb(54.760742%, 56.361389%, 73.487854%)" offset="0.449219"/><stop stop-opacity="1" stop-color="rgb(54.414368%, 56.013489%, 73.22998%)" offset="0.453125"/><stop stop-opacity="1" stop-color="rgb(54.066467%, 55.667114%, 72.970581%)" offset="0.457031"/><stop stop-opacity="1" stop-color="rgb(53.720093%, 55.319214%, 72.711182%)" offset="0.460938"/><stop stop-opacity="1" stop-color="rgb(53.372192%, 54.972839%, 72.453308%)" offset="0.464844"/><stop stop-opacity="1" stop-color="rgb(53.025818%, 54.624939%, 72.193909%)" offset="0.46875"/><stop stop-opacity="1" stop-color="rgb(52.677917%, 54.278564%, 71.936035%)" offset="0.472656"/><stop stop-opacity="1" stop-color="rgb(52.331543%, 53.930664%, 71.676636%)" offset="0.476562"/><stop stop-opacity="1" stop-color="rgb(51.983643%, 53.58429%, 71.418762%)" offset="0.480469"/><stop stop-opacity="1" stop-color="rgb(51.635742%, 53.236389%, 71.159363%)" offset="0.484375"/><stop stop-opacity="1" stop-color="rgb(51.289368%, 52.888489%, 70.901489%)" offset="0.488281"/><stop stop-opacity="1" stop-color="rgb(50.941467%, 52.542114%, 70.64209%)" offset="0.492188"/><stop stop-opacity="1" stop-color="rgb(50.595093%, 52.194214%, 70.384216%)" offset="0.496094"/><stop stop-opacity="1" stop-color="rgb(50.247192%, 51.847839%, 70.124817%)" offset="0.5"/><stop stop-opacity="1" stop-color="rgb(49.900818%, 51.499939%, 69.866943%)" offset="0.503906"/><stop stop-opacity="1" stop-color="rgb(49.552917%, 51.153564%, 69.607544%)" offset="0.507812"/><stop stop-opacity="1" stop-color="rgb(49.206543%, 50.805664%, 69.34967%)" offset="0.511719"/><stop stop-opacity="1" stop-color="rgb(48.858643%, 50.45929%, 69.090271%)" offset="0.515625"/><stop stop-opacity="1" stop-color="rgb(48.510742%, 50.111389%, 68.832397%)" offset="0.519531"/><stop stop-opacity="1" stop-color="rgb(48.164368%, 49.763489%, 68.572998%)" offset="0.523438"/><stop stop-opacity="1" stop-color="rgb(47.816467%, 49.417114%, 68.313599%)" offset="0.527344"/><stop stop-opacity="1" stop-color="rgb(47.470093%, 49.069214%, 68.055725%)" offset="0.53125"/><stop stop-opacity="1" stop-color="rgb(47.122192%, 48.722839%, 67.796326%)" offset="0.535156"/><stop stop-opacity="1" stop-color="rgb(46.775818%, 48.374939%, 67.538452%)" offset="0.539062"/><stop stop-opacity="1" stop-color="rgb(46.427917%, 48.028564%, 67.279053%)" offset="0.542969"/><stop stop-opacity="1" stop-color="rgb(46.081543%, 47.680664%, 67.021179%)" offset="0.546875"/><stop stop-opacity="1" stop-color="rgb(45.733643%, 47.33429%, 66.76178%)" offset="0.550781"/><stop stop-opacity="1" stop-color="rgb(45.385742%, 46.986389%, 66.503906%)" offset="0.554688"/><stop stop-opacity="1" stop-color="rgb(45.039368%, 46.638489%, 66.244507%)" offset="0.558594"/><stop stop-opacity="1" stop-color="rgb(44.691467%, 46.292114%, 65.986633%)" offset="0.5625"/><stop stop-opacity="1" stop-color="rgb(44.345093%, 45.944214%, 65.727234%)" offset="0.566406"/><stop stop-opacity="1" stop-color="rgb(43.997192%, 45.597839%, 65.46936%)" offset="0.570312"/><stop stop-opacity="1" stop-color="rgb(43.650818%, 45.249939%, 65.209961%)" offset="0.574219"/><stop stop-opacity="1" stop-color="rgb(43.302917%, 44.903564%, 64.952087%)" offset="0.578125"/><stop stop-opacity="1" stop-color="rgb(42.956543%, 44.555664%, 64.692688%)" offset="0.582031"/><stop stop-opacity="1" stop-color="rgb(42.608643%, 44.20929%, 64.434814%)" offset="0.585938"/><stop stop-opacity="1" stop-color="rgb(42.260742%, 43.861389%, 64.175415%)" offset="0.589844"/><stop stop-opacity="1" stop-color="rgb(41.914368%, 43.513489%, 63.916016%)" offset="0.59375"/><stop stop-opacity="1" stop-color="rgb(41.566467%, 43.167114%, 63.658142%)" offset="0.597656"/><stop stop-opacity="1" stop-color="rgb(41.220093%, 42.819214%, 63.398743%)" offset="0.601562"/><stop stop-opacity="1" stop-color="rgb(40.872192%, 42.472839%, 63.140869%)" offset="0.605469"/><stop stop-opacity="1" stop-color="rgb(40.525818%, 42.124939%, 62.88147%)" offset="0.609375"/><stop stop-opacity="1" stop-color="rgb(40.177917%, 41.778564%, 62.623596%)" offset="0.613281"/><stop stop-opacity="1" stop-color="rgb(39.831543%, 41.430664%, 62.364197%)" offset="0.617188"/><stop stop-opacity="1" stop-color="rgb(39.483643%, 41.08429%, 62.106323%)" offset="0.621094"/><stop stop-opacity="1" stop-color="rgb(39.135742%, 40.736389%, 61.846924%)" offset="0.625"/><stop stop-opacity="1" stop-color="rgb(38.789368%, 40.388489%, 61.58905%)" offset="0.628906"/><stop stop-opacity="1" stop-color="rgb(38.441467%, 40.042114%, 61.329651%)" offset="0.632812"/><stop stop-opacity="1" stop-color="rgb(38.095093%, 39.694214%, 61.071777%)" offset="0.636719"/><stop stop-opacity="1" stop-color="rgb(37.747192%, 39.347839%, 60.812378%)" offset="0.640625"/><stop stop-opacity="1" stop-color="rgb(37.400818%, 38.999939%, 60.554504%)" offset="0.644531"/><stop stop-opacity="1" stop-color="rgb(37.052917%, 38.653564%, 60.295105%)" offset="0.648438"/><stop stop-opacity="1" stop-color="rgb(36.706543%, 38.305664%, 60.037231%)" offset="0.652344"/><stop stop-opacity="1" stop-color="rgb(36.358643%, 37.95929%, 59.777832%)" offset="0.65625"/><stop stop-opacity="1" stop-color="rgb(36.010742%, 37.611389%, 59.518433%)" offset="0.660156"/><stop stop-opacity="1" stop-color="rgb(35.664368%, 37.263489%, 59.260559%)" offset="0.664062"/><stop stop-opacity="1" stop-color="rgb(35.316467%, 36.917114%, 59.00116%)" offset="0.667969"/><stop stop-opacity="1" stop-color="rgb(34.970093%, 36.569214%, 58.743286%)" offset="0.671875"/><stop stop-opacity="1" stop-color="rgb(34.622192%, 36.222839%, 58.483887%)" offset="0.675781"/><stop stop-opacity="1" stop-color="rgb(34.275818%, 35.874939%, 58.226013%)" offset="0.679688"/><stop stop-opacity="1" stop-color="rgb(33.927917%, 35.528564%, 57.966614%)" offset="0.683594"/><stop stop-opacity="1" stop-color="rgb(33.581543%, 35.180664%, 57.70874%)" offset="0.6875"/><stop stop-opacity="1" stop-color="rgb(33.233643%, 34.83429%, 57.449341%)" offset="0.691406"/><stop stop-opacity="1" stop-color="rgb(32.885742%, 34.486389%, 57.191467%)" offset="0.695312"/><stop stop-opacity="1" stop-color="rgb(32.539368%, 34.138489%, 56.932068%)" offset="0.699219"/><stop stop-opacity="1" stop-color="rgb(32.191467%, 33.792114%, 56.674194%)" offset="0.703125"/><stop stop-opacity="1" stop-color="rgb(31.845093%, 33.444214%, 56.414795%)" offset="0.707031"/><stop stop-opacity="1" stop-color="rgb(31.497192%, 33.097839%, 56.156921%)" offset="0.710938"/><stop stop-opacity="1" stop-color="rgb(31.150818%, 32.749939%, 55.897522%)" offset="0.714844"/><stop stop-opacity="1" stop-color="rgb(30.802917%, 32.403564%, 55.639648%)" offset="0.71875"/><stop stop-opacity="1" stop-color="rgb(30.456543%, 32.055664%, 55.380249%)" offset="0.722656"/><stop stop-opacity="1" stop-color="rgb(30.108643%, 31.70929%, 55.122375%)" offset="0.726562"/><stop stop-opacity="1" stop-color="rgb(29.760742%, 31.361389%, 54.862976%)" offset="0.730469"/><stop stop-opacity="1" stop-color="rgb(29.414368%, 31.013489%, 54.603577%)" offset="0.734375"/><stop stop-opacity="1" stop-color="rgb(29.066467%, 30.667114%, 54.345703%)" offset="0.738281"/><stop stop-opacity="1" stop-color="rgb(28.720093%, 30.319214%, 54.086304%)" offset="0.742188"/><stop stop-opacity="1" stop-color="rgb(28.372192%, 29.972839%, 53.82843%)" offset="0.746094"/><stop stop-opacity="1" stop-color="rgb(28.199768%, 29.798889%, 53.69873%)" offset="1"/></radialGradient><clipPath id="ca4e923e22"><path d="M 1 8 L 39 8 L 39 27.773438 L 1 27.773438 Z M 1 8 " clip-rule="nonzero"/></clipPath></defs><g clip-path="url(#898d84b149)"><g clip-path="url(#e92b98b922)"><g clip-path="url(#79efa52dcd)"><path fill="url(#1e6977783c)" d="M 0.414062 7.351562 L 0.414062 27.773438 L 39.621094 27.773438 L 39.621094 7.351562 Z M 0.414062 7.351562 " fill-rule="nonzero"/></g></g></g><g clip-path="url(#ca4e923e22)"><path fill="#777bb3" d="M 20.015625 27.03125 C 30.421875 27.03125 38.855469 22.792969 38.855469 17.570312 C 38.855469 12.347656 30.421875 8.113281 20.015625 8.113281 C 9.613281 8.113281 1.179688 12.347656 1.179688 17.570312 C 1.179688 22.792969 9.613281 27.03125 20.015625 27.03125 " fill-opacity="1" fill-rule="nonzero"/></g><path fill="#000000" d="M 11.0625 18.742188 C 11.917969 18.742188 12.558594 18.585938 12.960938 18.277344 C 13.359375 17.972656 13.636719 17.445312 13.78125 16.707031 C 13.917969 16.019531 13.867188 15.539062 13.628906 15.277344 C 13.386719 15.015625 12.867188 14.878906 12.078125 14.878906 L 10.710938 14.878906 L 9.953125 18.742188 Z M 6.589844 23.503906 C 6.527344 23.503906 6.46875 23.476562 6.425781 23.425781 C 6.386719 23.375 6.371094 23.316406 6.382812 23.253906 L 8.390625 13.011719 C 8.414062 12.898438 8.484375 12.84375 8.601562 12.84375 L 12.929688 12.84375 C 14.289062 12.84375 15.304688 13.207031 15.9375 13.929688 C 16.578125 14.65625 16.777344 15.671875 16.527344 16.945312 C 16.425781 17.464844 16.25 17.945312 16.007812 18.378906 C 15.761719 18.8125 15.441406 19.210938 15.046875 19.570312 C 14.578125 20.003906 14.046875 20.320312 13.472656 20.503906 C 12.902344 20.6875 12.175781 20.78125 11.304688 20.78125 L 9.550781 20.78125 L 9.050781 23.332031 C 9.03125 23.445312 8.960938 23.503906 8.84375 23.503906 Z M 6.589844 23.503906 " fill-opacity="1" fill-rule="nonzero"/><path fill="#ffffff" d="M 10.886719 15.089844 L 12.078125 15.089844 C 13.027344 15.089844 13.359375 15.296875 13.472656 15.421875 C 13.65625 15.625 13.691406 16.054688 13.574219 16.667969 C 13.4375 17.351562 13.1875 17.839844 12.832031 18.113281 C 12.464844 18.390625 11.871094 18.53125 11.0625 18.53125 L 10.210938 18.53125 Z M 12.929688 12.632812 L 8.601562 12.632812 C 8.367188 12.632812 8.226562 12.746094 8.183594 12.972656 L 6.175781 23.210938 C 6.148438 23.34375 6.179688 23.457031 6.265625 23.5625 C 6.347656 23.664062 6.457031 23.714844 6.59375 23.714844 L 8.84375 23.714844 C 9.078125 23.714844 9.214844 23.601562 9.261719 23.371094 L 9.726562 20.992188 L 11.304688 20.992188 C 12.199219 20.992188 12.949219 20.894531 13.539062 20.707031 C 14.144531 20.511719 14.699219 20.179688 15.195312 19.722656 C 15.601562 19.351562 15.9375 18.933594 16.191406 18.484375 C 16.445312 18.03125 16.628906 17.527344 16.734375 16.984375 C 17 15.644531 16.785156 14.570312 16.101562 13.792969 C 15.421875 13.023438 14.355469 12.632812 12.929688 12.632812 M 9.695312 18.953125 L 11.0625 18.953125 C 11.972656 18.953125 12.648438 18.785156 13.089844 18.445312 C 13.535156 18.109375 13.835938 17.542969 13.992188 16.75 C 14.140625 15.988281 14.074219 15.453125 13.789062 15.136719 C 13.503906 14.824219 12.933594 14.667969 12.078125 14.667969 L 10.535156 14.667969 L 9.695312 18.953125 M 12.929688 13.054688 C 14.230469 13.054688 15.183594 13.390625 15.78125 14.070312 C 16.375 14.746094 16.554688 15.691406 16.316406 16.90625 C 16.21875 17.40625 16.054688 17.863281 15.820312 18.277344 C 15.585938 18.691406 15.28125 19.070312 14.90625 19.414062 C 14.453125 19.832031 13.957031 20.128906 13.40625 20.304688 C 12.855469 20.480469 12.15625 20.570312 11.304688 20.570312 L 9.378906 20.570312 L 8.84375 23.292969 L 6.59375 23.292969 L 8.601562 13.054688 L 12.929688 13.054688 " fill-opacity="1" fill-rule="nonzero"/><path fill="#000000" d="M 21.6875 20.78125 C 21.625 20.78125 21.566406 20.753906 21.523438 20.703125 C 21.484375 20.65625 21.46875 20.589844 21.480469 20.53125 L 22.367188 16 C 22.453125 15.566406 22.433594 15.257812 22.308594 15.128906 C 22.234375 15.046875 22.007812 14.914062 21.34375 14.914062 L 19.734375 14.914062 L 18.617188 20.609375 C 18.59375 20.722656 18.527344 20.78125 18.410156 20.78125 L 16.175781 20.78125 C 16.109375 20.78125 16.054688 20.753906 16.011719 20.703125 C 15.96875 20.652344 15.953125 20.59375 15.964844 20.53125 L 17.976562 10.289062 C 17.996094 10.175781 18.066406 10.121094 18.183594 10.121094 L 20.417969 10.121094 C 20.484375 10.121094 20.539062 10.144531 20.582031 10.195312 C 20.625 10.246094 20.640625 10.304688 20.625 10.371094 L 20.140625 12.84375 L 21.875 12.84375 C 23.191406 12.84375 24.085938 13.074219 24.609375 13.546875 C 25.140625 14.03125 25.304688 14.804688 25.101562 15.84375 L 24.167969 20.609375 C 24.144531 20.722656 24.074219 20.78125 23.957031 20.78125 Z M 21.6875 20.78125 " fill-opacity="1" fill-rule="nonzero"/><path fill="#ffffff" d="M 20.417969 9.910156 L 18.183594 9.910156 C 17.949219 9.910156 17.8125 10.023438 17.765625 10.25 L 15.757812 20.488281 C 15.730469 20.621094 15.761719 20.734375 15.847656 20.835938 C 15.933594 20.941406 16.042969 20.992188 16.175781 20.992188 L 18.410156 20.992188 C 18.644531 20.992188 18.78125 20.878906 18.828125 20.648438 L 19.910156 15.125 L 21.34375 15.125 C 22.007812 15.125 22.148438 15.265625 22.152344 15.273438 C 22.195312 15.316406 22.246094 15.511719 22.160156 15.957031 L 21.269531 20.488281 C 21.246094 20.621094 21.273438 20.734375 21.359375 20.835938 C 21.445312 20.941406 21.554688 20.992188 21.6875 20.992188 L 23.957031 20.992188 C 24.191406 20.992188 24.332031 20.878906 24.375 20.648438 L 25.308594 15.886719 C 25.527344 14.765625 25.339844 13.925781 24.753906 13.390625 C 24.191406 12.878906 23.25 12.632812 21.875 12.632812 L 20.398438 12.632812 L 20.835938 10.410156 C 20.859375 10.28125 20.832031 10.164062 20.746094 10.0625 C 20.660156 9.960938 20.550781 9.910156 20.417969 9.910156 M 20.417969 10.332031 L 19.882812 13.050781 L 21.875 13.050781 C 23.125 13.050781 23.988281 13.269531 24.464844 13.703125 C 24.941406 14.132812 25.082031 14.835938 24.890625 15.804688 L 23.957031 20.570312 L 21.6875 20.570312 L 22.578125 16.039062 C 22.679688 15.523438 22.640625 15.171875 22.464844 14.984375 C 22.289062 14.796875 21.917969 14.703125 21.34375 14.703125 L 19.558594 14.703125 L 18.410156 20.570312 L 16.175781 20.570312 L 18.183594 10.332031 L 20.417969 10.332031 " fill-opacity="1" fill-rule="nonzero"/><path fill="#000000" d="M 28.636719 18.742188 C 29.492188 18.742188 30.128906 18.585938 30.53125 18.277344 C 30.933594 17.972656 31.210938 17.445312 31.355469 16.707031 C 31.488281 16.019531 31.4375 15.539062 31.199219 15.277344 C 30.960938 15.015625 30.4375 14.878906 29.648438 14.878906 L 28.28125 14.878906 L 27.523438 18.742188 Z M 24.164062 23.503906 C 24.101562 23.503906 24.039062 23.476562 24 23.425781 C 23.957031 23.375 23.941406 23.316406 23.953125 23.25 L 25.964844 13.011719 C 25.984375 12.898438 26.054688 12.84375 26.171875 12.84375 L 30.5 12.84375 C 31.863281 12.84375 32.875 13.207031 33.511719 13.929688 C 34.152344 14.65625 34.347656 15.671875 34.097656 16.945312 C 33.996094 17.464844 33.820312 17.945312 33.578125 18.378906 C 33.332031 18.8125 33.011719 19.210938 32.621094 19.570312 C 32.152344 20.003906 31.621094 20.320312 31.042969 20.503906 C 30.476562 20.6875 29.746094 20.78125 28.878906 20.78125 L 27.121094 20.78125 L 26.621094 23.332031 C 26.601562 23.445312 26.53125 23.503906 26.414062 23.503906 Z M 24.164062 23.503906 " fill-opacity="1" fill-rule="nonzero"/><path fill="#ffffff" d="M 28.457031 15.089844 L 29.648438 15.089844 C 30.601562 15.089844 30.929688 15.296875 31.042969 15.421875 C 31.230469 15.625 31.265625 16.054688 31.144531 16.667969 C 31.011719 17.351562 30.761719 17.839844 30.402344 18.113281 C 30.039062 18.390625 29.441406 18.53125 28.636719 18.53125 L 27.78125 18.53125 Z M 30.5 12.632812 L 26.171875 12.632812 C 25.9375 12.632812 25.800781 12.746094 25.753906 12.972656 L 23.746094 23.210938 C 23.71875 23.34375 23.75 23.457031 23.835938 23.5625 C 23.921875 23.664062 24.03125 23.714844 24.164062 23.714844 L 26.414062 23.714844 C 26.648438 23.714844 26.789062 23.601562 26.832031 23.371094 L 27.300781 20.992188 L 28.878906 20.992188 C 29.769531 20.992188 30.519531 20.894531 31.109375 20.707031 C 31.714844 20.511719 32.273438 20.179688 32.765625 19.722656 C 33.171875 19.351562 33.507812 18.933594 33.761719 18.484375 C 34.019531 18.03125 34.199219 17.527344 34.308594 16.984375 C 34.570312 15.644531 34.355469 14.570312 33.671875 13.792969 C 32.992188 13.023438 31.925781 12.632812 30.5 12.632812 M 27.265625 18.953125 L 28.636719 18.953125 C 29.542969 18.953125 30.21875 18.785156 30.664062 18.445312 C 31.105469 18.109375 31.40625 17.542969 31.5625 16.75 C 31.710938 15.988281 31.644531 15.453125 31.359375 15.136719 C 31.074219 14.824219 30.503906 14.667969 29.648438 14.667969 L 28.105469 14.667969 L 27.265625 18.953125 M 30.5 13.054688 C 31.804688 13.054688 32.753906 13.390625 33.351562 14.070312 C 33.949219 14.746094 34.128906 15.691406 33.890625 16.90625 C 33.792969 17.40625 33.625 17.863281 33.390625 18.277344 C 33.160156 18.691406 32.851562 19.070312 32.476562 19.414062 C 32.027344 19.832031 31.527344 20.128906 30.976562 20.304688 C 30.429688 20.480469 29.726562 20.570312 28.878906 20.570312 L 26.949219 20.570312 L 26.414062 23.292969 L 24.164062 23.292969 L 26.171875 13.054688 L 30.5 13.054688 " fill-opacity="1" fill-rule="nonzero"/></svg>